<?xml version="1.0" encoding="utf-8"?>
<!-- Generator: Adobe Illustrator 18.1.1, SVG Export Plug-In . SVG Version: 6.00 Build 0)  -->
<svg version="1.1" id="Layer_1" xmlns="http://www.w3.org/2000/svg" xmlns:xlink="http://www.w3.org/1999/xlink" x="0px" y="0px"
	 viewBox="0 0 65 65" enable-background="new 0 0 65 65" xml:space="preserve">
<g>
	<path fill="#1888C9" d="M48.5,18.6L37.3,7.5C36.6,6.7,35,6,33.9,6H10.7c-1.1,0-2,0.9-2,2v45.1c0,1.1,0.9,2,2,2h24.7v-2H10.7V8h22.4
		v11.3c0,1.7,1.3,3,3,3h11.9v4.8h2V22C49.9,20.9,49.3,19.4,48.5,18.6z M36.1,20.4c-0.5,0-1-0.5-1-1V8.3c0.4,0.2,0.7,0.4,0.9,0.5
		L47.1,20c0.1,0.1,0.2,0.2,0.3,0.3H36.1z"/>
</g>
<path fill="#1888C9" d="M58.6,42.9h-6.3v-5.2c0-1.9-1-2.9-3-2.9c-1.9,0-3,1-3,2.9v5.2H40v-5.2c0-6.1,4.7-9.2,9.3-9.2
	c2.6,0,5.1,1,6.8,2.7c1.6,1.7,2.5,3.9,2.5,6.5V42.9z M53.9,41.2h2.9v-3.5c0-2.1-0.7-4-2-5.3c-1.4-1.4-3.4-2.2-5.6-2.2
	c-3.7,0-7.6,2.4-7.6,7.5v3.5h2.9v-3.5c0-2.8,1.8-4.6,4.7-4.6c2.9,0,4.7,1.8,4.7,4.6V41.2z"/>
<path fill="#1888C9" d="M58.4,60H40.3c-1.4,0-2.4-1.1-2.4-2.4V46.9c0-1.4,1.1-2.5,2.4-2.5h18c1.4,0,2.4,1,2.5,2.4l0,10.7
	C60.8,58.9,59.7,60,58.4,60z M40.3,46.1c-0.4,0-0.8,0.3-0.8,0.8v10.6c0,0.4,0.3,0.7,0.8,0.7h18.1c0.4,0,0.7-0.3,0.7-0.7V46.9
	c0-0.4-0.4-0.8-0.8-0.8H40.3z"/>
<path fill="#1888C9" d="M50.4,51.9l0.1,3h-2.3l0.1-3c-0.5-0.3-0.7-0.6-0.7-1.4c0-1.1,0.8-1.7,1.8-1.7c0.8,0,1.8,0.5,1.8,1.7
	C51.1,51.3,50.8,51.6,50.4,51.9z"/>
</svg>
