<?xml version="1.0" encoding="utf-8"?>
<!-- Generator: Adobe Illustrator 17.1.0, SVG Export Plug-In . SVG Version: 6.00 Build 0)  -->
<!DOCTYPE svg PUBLIC "-//W3C//DTD SVG 1.1//EN" "http://www.w3.org/Graphics/SVG/1.1/DTD/svg11.dtd">
<svg version="1.1" id="briefcase" xmlns="http://www.w3.org/2000/svg" xmlns:xlink="http://www.w3.org/1999/xlink" x="0px" y="0px"
	 viewBox="0 0 140 140" enable-background="new 0 0 140 140" xml:space="preserve">
<path fill="none" stroke="#FFFFFF" stroke-width="3" stroke-miterlimit="10" d="M99.8,91.1H40.9c-3.1,0-5.6-2.5-5.6-5.5V50.6
	c0-3.1,2.5-5.5,5.6-5.5h58.9c3.1,0,5.6,2.5,5.6,5.5v34.9C105.3,88.6,102.8,91.1,99.8,91.1z"/>
<path fill="none" stroke="#FFFFFF" stroke-width="3" stroke-miterlimit="10" d="M56.3,45v-6.6c0-1.3,1.1-2.4,2.4-2.4H82
	c1.3,0,2.4,1.1,2.4,2.4V45"/>
<line fill="none" stroke="#FFFFFF" stroke-width="3" stroke-miterlimit="10" x1="35.3" y1="62" x2="105.3" y2="62"/>
<path fill="none" stroke="#FFFFFF" stroke-width="3" stroke-miterlimit="10" d="M76.3,62.1v11.1c0,1.5-1.2,2.7-2.7,2.7h-6
	c-1.5,0-3.3-1.2-3.3-2.7V62.1"/>
</svg>
