<?xml version="1.0" encoding="utf-8"?>
<!-- Generator: Adobe Illustrator 17.1.0, SVG Export Plug-In . SVG Version: 6.00 Build 0)  -->
<!DOCTYPE svg PUBLIC "-//W3C//DTD SVG 1.1//EN" "http://www.w3.org/Graphics/SVG/1.1/DTD/svg11.dtd">
<svg version="1.1" id="Layer_1" xmlns="http://www.w3.org/2000/svg" xmlns:xlink="http://www.w3.org/1999/xlink" x="0px" y="0px"
	 width="45px" height="45px" viewBox="-10 -10.5 45 45" enable-background="new -10 -10.5 45 45" xml:space="preserve">
<g>
	<path fill="#0079C2" stroke="#0079C2" stroke-width="0.25" stroke-miterlimit="10" d="M31-3h-1.7v-3.3c0-0.4-0.2-0.8-0.5-1.1
		c-0.7-0.6-1.8-0.5-2.1-0.5c-8.7,0.2-12.9,3.4-14.2,4.7c0,0,0,0,0,0h0c0,0,0,0,0,0C11.1-4.5,6.9-7.7-1.7-7.9c-0.2,0-1.4-0.1-2.1,0.5
		c-0.3,0.3-0.5,0.7-0.5,1.1V-3H-6c-1.2,0-2.5,0.9-2.5,2.5v27c0,1.4,1.1,2.5,2.5,2.5H7.6c0.5,0,1,0.5,1.6,1c0.7,0.7,1.5,1.4,2.5,1.4
		h0.8l0,0h0.8c1,0,1.8-0.7,2.5-1.4c0.6-0.5,1.1-1,1.6-1H31c1.4,0,2.5-1.1,2.5-2.5v-27C33.4-2.2,32.2-3,31-3z M13.4-1.6L13.4-1.6
		C13.5-1.7,17-6,26.8-6.2c0.3,0,0.6,0,0.8,0.1v27.7c-0.2,0-0.5,0-0.7,0h-0.1c-2.5,0-9.3,0-13.4,2.5L13.4-1.6L13.4-1.6z M-2.6-6.2
		c0.2-0.1,0.5-0.1,0.8-0.1C8-6,11.5-1.7,11.5-1.6l0.1,0.1V24c-4-2.5-10.9-2.5-13.4-2.5h-0.1c-0.2,0-0.5,0-0.7,0
		C-2.6,21.5-2.6-6.2-2.6-6.2z M31.8,26.5c0,0.5-0.4,0.8-0.8,0.8H17.4c-1.1,0-2,0.8-2.7,1.5c-0.5,0.4-1,1-1.4,1h-0.8l0,0h-0.8
		c-0.3,0-0.9-0.5-1.4-1c-0.8-0.7-1.6-1.5-2.7-1.5H-6c-0.4,0-0.8-0.3-0.8-0.8v-27c0-0.7,0.6-0.8,0.8-0.8h1.7v22.9
		c0,0.6,0.2,0.9,0.4,1.1c0.5,0.5,1.3,0.5,1.9,0.5h0.1c7.1,0,11.5,1,13.6,3l0.2,0.2h0.6l0,0h0.6l0.2-0.2c2-2,6.4-3,13.6-3H27
		c0.6,0,1.3,0,1.9-0.5c0.2-0.2,0.4-0.6,0.4-1.1V-1.3H31c0.2,0,0.8,0.1,0.8,0.8L31.8,26.5L31.8,26.5z"/>
</g>
</svg>
