<?xml version="1.0" encoding="utf-8"?>
<!-- Generator: Adobe Illustrator 17.1.0, SVG Export Plug-In . SVG Version: 6.00 Build 0)  -->
<!DOCTYPE svg PUBLIC "-//W3C//DTD SVG 1.1//EN" "http://www.w3.org/Graphics/SVG/1.1/DTD/svg11.dtd">
<svg version="1.1" id="turbine" xmlns="http://www.w3.org/2000/svg" xmlns:xlink="http://www.w3.org/1999/xlink" x="0px" y="0px"
	 viewBox="0 0 140 140" enable-background="new 0 0 140 140" xml:space="preserve">
<path fill="none" stroke="#FFFFFF" stroke-width="3" stroke-miterlimit="10" d="M68.4,58.1l-3.5,47.2c0,1.6,2.3,2.9,5.1,2.9
	s5.1-1.3,5.1-2.9l-3.5-47.2"/>
<g>
	<path fill="none" stroke="#FFFFFF" stroke-width="3" stroke-miterlimit="10" d="M72.7,47.4c-0.2-14.8-1.4-26.1-2.8-26.1
		c-1.4,0-2.6,11.3-2.8,26.1"/>
	<path fill="none" stroke="#FFFFFF" stroke-width="3" stroke-miterlimit="10" d="M75.8,52.4C88.4,60,97.5,66.6,96.8,67.8
		c-0.7,1.2-10.9-3.4-23.6-10.5"/>
	<path fill="none" stroke="#FFFFFF" stroke-width="3" stroke-miterlimit="10" d="M66.8,57.3c-12.8,7.1-23,11.7-23.7,10.5
		c-0.7-1.2,8.4-7.8,21.1-15.4"/>
	<path fill="none" stroke="#FFFFFF" stroke-width="3" stroke-miterlimit="10" d="M75.8,52.4c0-2.1-1.2-4-3-5"/>
	<path fill="none" stroke="#FFFFFF" stroke-width="3" stroke-miterlimit="10" d="M72.7,47.4C71.9,47,71,46.7,70,46.7
		c-1,0-2,0.3-2.8,0.7"/>
	<path fill="none" stroke="#FFFFFF" stroke-width="3" stroke-miterlimit="10" d="M64.2,52.4c0-2.1,1.2-4,3-5"/>
	<path fill="none" stroke="#FFFFFF" stroke-width="3" stroke-miterlimit="10" d="M73.2,57.3c-0.9,0.6-2,1-3.2,1
		c-1.2,0-2.2-0.3-3.2-0.9"/>
	<path fill="none" stroke="#FFFFFF" stroke-width="3" stroke-miterlimit="10" d="M75.8,52.4C75.8,52.4,75.8,52.5,75.8,52.4
		c0,2.1-1,3.9-2.6,4.9"/>
	<path fill="none" stroke="#FFFFFF" stroke-width="3" stroke-miterlimit="10" d="M66.8,57.3c-1.6-1-2.6-2.8-2.6-4.8c0,0,0,0,0-0.1"
		/>
</g>
</svg>
