<?xml version="1.0" encoding="utf-8"?>
<!-- Generator: Adobe Illustrator 18.1.1, SVG Export Plug-In . SVG Version: 6.00 Build 0)  -->
<svg version="1.1" id="Layer_1" xmlns="http://www.w3.org/2000/svg" xmlns:xlink="http://www.w3.org/1999/xlink" x="0px" y="0px"
	 viewBox="0 0 65 65" enable-background="new 0 0 65 65" xml:space="preserve">
<g>
	<g>
		<path fill="#157ABF" d="M53.2,18.8l-0.5-0.5l-11-10.9l-0.5-0.5c-0.8-0.9-2.5-1.6-3.7-1.6h-25c-1.2,0-2.2,1-2.2,2.2V56
			c0,1.1,0.8,2,1.9,2.1c0.1,0,0.2,0,0.2,0h40.2c0.1,0,0.2,0,0.2,0c1.1-0.1,1.9-1,1.9-2.1V22.4C54.7,21.2,54,19.6,53.2,18.8z
			 M38.7,7.3l1,0.8l12,12.1l0.5,0.4H39.8v0c-0.5,0-1.1-0.5-1.1-1.1V7.3z M52.6,56H12.4V7.3h24.2v12.2c0,1.8,1.4,3.2,3.2,3.2h12.8V56
			z"/>
	</g>
	<g>
		<path fill="#157ABF" d="M52.6,48.1V56H12.4v-7.9h-2.2V56c0,1.1,0.8,2,1.9,2.1c0.1,0,0.2,0,0.2,0h40.2c0.1,0,0.2,0,0.2,0
			c1.1-0.1,1.9-1,1.9-2.1v-7.9H52.6z"/>
	</g>
	<path fill="#157ABF" d="M32.9,30H20c-0.7,0-1.2-0.6-1.2-1.2v-0.3c0-0.7,0.6-1.2,1.2-1.2h12.9c0.7,0,1.2,0.6,1.2,1.2v0.3
		C34.1,29.4,33.6,30,32.9,30z"/>
	<path fill="#157ABF" d="M39,36H20c-0.7,0-1.2-0.6-1.2-1.2v-0.3c0-0.7,0.6-1.2,1.2-1.2h19c0.7,0,1.2,0.6,1.2,1.2v0.3
		C40.2,35.5,39.6,36,39,36z"/>
	<path fill="#157ABF" d="M34.9,42.1H20c-0.7,0-1.2-0.6-1.2-1.2v-0.3c0-0.7,0.6-1.2,1.2-1.2h14.9c0.7,0,1.2,0.6,1.2,1.2v0.3
		C36.1,41.6,35.6,42.1,34.9,42.1z"/>
	<path fill="#157ABF" d="M41,48.2H20c-0.7,0-1.2-0.6-1.2-1.2v-0.3c0-0.7,0.6-1.2,1.2-1.2h21c0.7,0,1.2,0.6,1.2,1.2v0.3
		C42.2,47.6,41.6,48.2,41,48.2z"/>
</g>
</svg>
