<?xml version="1.0" encoding="utf-8"?>
<!-- Generator: Adobe Illustrator 18.1.1, SVG Export Plug-In . SVG Version: 6.00 Build 0)  -->
<svg version="1.1" id="Layer_1" xmlns="http://www.w3.org/2000/svg" xmlns:xlink="http://www.w3.org/1999/xlink" x="0px" y="0px"
	 viewBox="0 0 75 75" enable-background="new 0 0 75 75" xml:space="preserve">
<path fill="none" stroke="#1288C9" stroke-width="1.5" stroke-miterlimit="10" d="M51.9,53.9c-0.2,1.9-1,4.1-1,4.1H28H5.1
	c0,0-0.8-2.2-1-4.1c-0.4-3.7,2.1-5.4,5.4-6.8c3.9-1.7,9.1-4.9,11.6-5.8l0.4-3c-1.5-1.8-1.6-3.3-2.3-6c-0.5-0.3-1-0.9-1.1-1.5
	l-0.8-4.7c0-0.7,0.3-1.3,0.8-1.6c0-7,2.6-11.5,9.9-11.5s9.9,4.5,9.9,11.5c0.5,0.3,0.9,0.9,0.8,1.6l-0.8,4.7
	c-0.1,0.6-0.5,1.2-1.1,1.5c-0.7,2.6-0.9,4.2-2.3,6l0.4,3c2.5,0.9,7.7,4,11.7,5.7C49.9,48.4,52.2,50.2,51.9,53.9z M66.6,48.9
	c-4-2.3-9-4.3-9.9-5.9c0.7-1.8,4.1-0.4,6.4-1.6c0.4-0.2,0.5-0.5,0.1-1.1c-1.2-2.1-3-5.3-3-12.2c0-7-3.4-12.2-9.6-12.2
	s-9.4,5.3-9.6,12.2c-0.1,4.4-1.5,7.9-3,10.8c-0.3,0.6-0.3,0.9,0.1,1.1c2.5,1.3,4.9,2.8,9.3,4.7c1.8,0.8,7.4,3.1,6.8,9.5
	c-0.1,1.4-0.6,2.9-0.8,3.9h16.4c0,0,1-2.3,1-4.4C70.9,51.4,69.9,50.8,66.6,48.9z"/>
</svg>
