<?xml version="1.0" encoding="utf-8"?>
<!-- Generator: Adobe Illustrator 17.1.0, SVG Export Plug-In . SVG Version: 6.00 Build 0)  -->
<!DOCTYPE svg PUBLIC "-//W3C//DTD SVG 1.1//EN" "http://www.w3.org/Graphics/SVG/1.1/DTD/svg11.dtd">
<svg version="1.1" id="globe" xmlns="http://www.w3.org/2000/svg" xmlns:xlink="http://www.w3.org/1999/xlink" x="0px" y="0px"
	 viewBox="0 0 140 140" enable-background="new 0 0 140 140" xml:space="preserve">
<line fill="none" stroke="#FFFFFF" stroke-width="3" stroke-miterlimit="10" x1="60.4" y1="31.2" x2="85.5" y2="81.3"/>
<line fill="none" stroke="#FFFFFF" stroke-width="3" stroke-miterlimit="10" x1="47.9" y1="68.9" x2="98" y2="43.7"/>
<g>
	<path fill="none" stroke="#FFFFFF" stroke-width="3" stroke-miterlimit="10" d="M100.5,61.5c1.1-5.8,0.4-12-2.5-17.8
		c-2.8-5.6-7.3-9.9-12.5-12.5c-3.9,5.9-9.9,11.3-17.5,15.1s-15.6,5.4-22.6,5c-1,5.8-0.3,11.9,2.5,17.5c2.9,5.7,7.4,10,12.7,12.6
		c3.9-5.8,9.9-11.2,17.4-15C85.6,62.7,93.5,61.1,100.5,61.5z"/>
	<path fill="none" stroke="#FFFFFF" stroke-width="3" stroke-miterlimit="10" d="M85.5,31.2c-7.6-3.8-16.9-4.1-25.1,0
		c-8.2,4.1-13.5,11.7-15,20.1c7,0.4,15-1.2,22.6-5S81.6,37.1,85.5,31.2z"/>
	<path fill="none" stroke="#FFFFFF" stroke-width="3" stroke-miterlimit="10" d="M85.5,81.3c8.1-4.1,13.4-11.6,15-19.9
		c-7-0.4-14.9,1.2-22.4,5c-7.6,3.8-13.6,9.1-17.4,15C68.2,85.2,77.4,85.4,85.5,81.3z"/>
</g>
<g>
	<path fill="none" stroke="#FFFFFF" stroke-width="3" stroke-miterlimit="10" d="M85.2,80.7C76,80.9,65.8,74,60.1,62.7
		S55,39.1,60.7,31.9"/>
	<path fill="none" stroke="#FFFFFF" stroke-miterlimit="10" d="M60.7,31.9c0.4-0.5,0.9-1,1.4-1.5"/>
	<path fill="none" stroke="#FFFFFF" stroke-miterlimit="10" d="M85.2,80.7c0.7,0,1.4-0.1,2-0.2"/>
	<path fill="none" stroke="#FFFFFF" stroke-width="3" stroke-miterlimit="10" d="M85.2,80.7c5.7-7.2,6.3-19.5,0.6-30.8
		S69.9,31.6,60.7,31.9"/>
	<path fill="none" stroke="#FFFFFF" stroke-miterlimit="10" d="M58.7,32.1c0.7-0.1,1.4-0.2,2-0.2"/>
	<path fill="none" stroke="#FFFFFF" stroke-miterlimit="10" d="M85.2,80.7c-0.4,0.5-0.9,1-1.4,1.5"/>
	<path fill="none" stroke="#FFFFFF" stroke-miterlimit="10" d="M58.7,32.1c0.5-0.3,1.1-0.6,1.7-0.9c0.6-0.3,1.2-0.5,1.7-0.8"/>
	<path fill="none" stroke="#FFFFFF" stroke-miterlimit="10" d="M87.2,80.5c-0.5,0.3-1.1,0.6-1.7,0.9c-0.6,0.3-1.2,0.5-1.7,0.8"/>
</g>
<path fill="none" stroke="#FFFFFF" stroke-width="3" stroke-linecap="round" stroke-miterlimit="10" d="M90,90
	c-5.3,2.8-11.4,4.5-17.9,4.5C51.1,94.5,34,77.4,34,56.4c0-14.7,8.3-27.4,20.4-33.8"/>
<path fill="#FFFFFF" d="M86.3,105.5l-1.6-2.2c-0.9-1.2-1-1.7-2.4-1.7h-6.4v-7.1h-7v7.1h-6.4c-1.4,0-1.5,0.4-2.4,1.7l-1.6,2.2
	c-0.4,0.5-1.3,1.9,0.9,1.9h26.2C87.5,107.4,86.7,106,86.3,105.5z"/>
</svg>
