<?xml version="1.0" encoding="utf-8"?>
<!-- Generator: Adobe Illustrator 18.1.1, SVG Export Plug-In . SVG Version: 6.00 Build 0)  -->
<svg version="1.1" id="Layer_1" xmlns="http://www.w3.org/2000/svg" xmlns:xlink="http://www.w3.org/1999/xlink" x="0px" y="0px"
	 viewBox="0 0 70 70" enable-background="new 0 0 70 70" xml:space="preserve">
<path fill="#FFFFFF" d="M30.2,46.4c0.6,1.4,1,2.2,1,2.2c2.9,4.4,5.3,5,5.4,5l0,0.1c0.4,0.1,1,0.2,1.6,0.2v-6.8
	C37.3,47.1,33.7,47.1,30.2,46.4z"/>
<g>
	<path fill="#1279BF" d="M35.7,41.7V27.3l0.7,0.1c3.6,0.3,6.2,3.3,6.2,7.1c0,3.8-2.6,6.8-6.2,7.1L35.7,41.7z M37,28.7v11.5
		c2.6-0.5,4.4-2.9,4.4-5.8C41.3,31.5,39.6,29.2,37,28.7z"/>
	<path fill="#1279BF" d="M35.7,59v-8.9l0.6,0c8.3-0.3,14.8-7.1,14.8-15.6c0-8.5-6.5-15.4-14.8-15.6l-0.6,0V10l0.6,0
		C49.6,10.3,60,21,60,34.5C60,47.9,49.6,58.7,36.4,59L35.7,59z M37,51.4v6.4C49.2,57.1,58.7,47,58.7,34.5c0-12.6-9.5-22.6-21.7-23.2
		v6.4c8.7,0.6,15.4,7.9,15.4,16.9C52.4,43.5,45.7,50.8,37,51.4z"/>
	<path fill="#1279BF" d="M19,25.3c-0.4,2.2-0.7,4.5-0.8,6.8h-6.1c0.1-0.5,0.1-1,0.2-1.5c0.1-0.1,0.1-0.2,0.2-0.3l0-0.1
		C13.8,29,16.1,26.9,19,25.3 M20.8,23.1c0,0-0.1,0-0.1,0c-4.1,1.6-7.4,4.6-9.1,6.3c-0.2,0.2-0.3,0.5-0.5,0.7
		c-0.2,1.1-0.3,1.8-0.4,3.2h8.6C19.4,29.4,20,26,20.8,23.1L20.8,23.1z"/>
	<path fill="#1279BF" d="M32.6,22.4v9.7h-9.9c0.2-3.1,0.7-6.1,1.5-8.8C27.5,22.6,30.8,22.4,32.6,22.4 M32.7,21.2
		c-2,0-5.8,0.2-9.6,1.2c-0.9,2.9-1.7,6.7-1.8,11.1h12.5V21.2C33.6,21.2,33.3,21.2,32.7,21.2L32.7,21.2z"/>
	<path fill="#1279BF" d="M22.6,15.4c-0.7,1.2-1.4,2.8-2,4.4c-0.4,0.1-0.7,0.2-1.1,0.4c-1.3,0.5-2.6,1.2-3.8,1.9
		C17.4,19.4,19.8,17.1,22.6,15.4 M26.9,12c-6.8,2.3-12.1,7.5-14.6,14.2c1.9-1.6,4.5-3.4,7.7-4.8c0.5-0.2,1-0.4,1.6-0.5
		c1-2.8,2-4.8,2.9-5.9C25.3,13.7,26.1,12.8,26.9,12L26.9,12z"/>
	<path fill="#1279BF" d="M32.6,12.1V18c-1.5,0-3.9,0.1-6.5,0.5c0.4-0.8,0.8-1.3,0.9-1.6c2.3-3.1,3.8-4.1,5.4-4.8
		C32.5,12.1,32.6,12.1,32.6,12.1 M33.9,10.7c-0.7,0-1.3,0.1-1.8,0.2c-1.9,0.7-3.6,1.9-6.1,5.2c-0.6,0.8-1.3,2.1-2.1,4
		c3.6-0.8,7.3-0.9,9-0.9c0.4,0,0.7,0,0.9,0V10.7L33.9,10.7z"/>
	<path fill="#1279BF" d="M26.2,50.9c2.6,0.4,4.9,0.5,6.4,0.5v5.5l-0.4-0.1c0,0-2.6-0.8-5.8-5.6C26.4,51.2,26.4,51.1,26.2,50.9
		 M24.1,49.2c0.7,1.7,1.3,2.6,1.3,2.7c3.5,5.4,6.5,6.1,6.5,6.1l0,0.1c0.5,0.1,1.2,0.3,2,0.3v-8.3c-0.2,0-0.5,0-0.9,0
		C31.3,50.1,27.7,50,24.1,49.2L24.1,49.2z"/>
	<path fill="#1279BF" d="M16,47.3c1.1,0.7,2.3,1.3,3.5,1.7c0.4,0.2,0.8,0.3,1.3,0.5c1,2.6,1.8,4,1.9,4.1C20,52.1,17.7,49.9,16,47.3
		 M12.4,43.3C15,49.8,20.3,54.9,27,57.1c-1-1-2.2-2.3-3.3-4.1c0,0-1-1.6-2-4.4c-0.6-0.2-1.2-0.4-1.7-0.6
		C16.8,46.6,14.2,44.8,12.4,43.3L12.4,43.3z"/>
	<path fill="#1279BF" d="M18.1,36.8c0.1,2.5,0.4,4.9,0.9,7.3c-3.2-1.7-5.7-4.1-6.9-5.3c-0.1-0.6-0.1-1.2-0.2-1.9H18.1 M19.4,35.5
		h-8.6c0,1.2,0.1,2.6,0.3,3.8c1.4,1.5,4.9,5,9.6,6.9c0.1,0,0.2,0.1,0.4,0.1C20.1,43.5,19.5,39.8,19.4,35.5L19.4,35.5z"/>
	<path fill="#1279BF" d="M32.6,36.8v10.1c-1.5,0-4.4-0.1-7.3-0.7c-0.3-0.1-0.7-0.2-1-0.2c-0.7-2.2-1.4-5.3-1.6-9.2H32.6 M33.9,35.5
		H21.4c0.1,4.8,1,8.7,1.9,11.5c0.6,0.2,1.1,0.3,1.7,0.4c3.1,0.6,6,0.7,7.7,0.7c0.5,0,0.9,0,1.1,0V35.5L33.9,35.5z"/>
</g>
</svg>
