<?xml version="1.0" encoding="utf-8"?>
<!-- Generator: Adobe Illustrator 18.1.1, SVG Export Plug-In . SVG Version: 6.00 Build 0)  -->
<svg version="1.1" id="Layer_1" xmlns="http://www.w3.org/2000/svg" xmlns:xlink="http://www.w3.org/1999/xlink" x="0px" y="0px"
	 viewBox="0 0 75 75" enable-background="new 0 0 75 75" xml:space="preserve">
<g>
	<path fill="none" stroke="#1288C9" stroke-width="1.5" stroke-miterlimit="10" d="M9.3,64h16V52c0-2.2-1.8-4-4-4h-8
		c-2.2,0-4,1.8-4,4V64z M53.3,20c-2.2,0-4,1.8-4,4v40h16V24c0-2.2-1.8-4-4-4H53.3z M29.3,64h16V40c0-2.2-1.8-4-4-4h-8
		c-2.2,0-4,1.8-4,4V64z"/>
	<path fill="none" stroke="#1288C9" stroke-width="1.5" stroke-miterlimit="10" d="M45.3,8h-21c-1.4,0-2.2,1.8-1.1,2.9l4.7,5
		c-1.8,4.1-5.5,6.9-11.8,6.9c-1.5,0-2.9-0.1-4.3-0.4c-1.7-0.3-3.3,1.6-2,3c3.7,3.9,8.6,6.3,14,6.3c5.2,0,9.9-2.2,13.5-5.9l5.3,5.7
		c1,1.1,2.8,0.3,2.8-1.2V8z"/>
</g>
</svg>
