<?xml version="1.0" encoding="utf-8"?>
<!-- Generator: Adobe Illustrator 18.1.1, SVG Export Plug-In . SVG Version: 6.00 Build 0)  -->
<svg version="1.1" id="Layer_1" xmlns="http://www.w3.org/2000/svg" xmlns:xlink="http://www.w3.org/1999/xlink" x="0px" y="0px"
	 viewBox="0 0 70 70" enable-background="new 0 0 70 70" xml:space="preserve">
<path fill="#1279BF" d="M40,66.6l-3.1-6.8c-1.6-3.6-2.5-4.3-2.7-4.5c-0.2,0.1-1.2,0.8-3,4.2l-3.8,7l-0.1-8c0-3.7-0.5-4.8-0.6-5.1
	c-0.3,0.1-1.5,0.5-4.3,2.8l-6.2,5.2l3-7.6c1.3-3.4,1.4-4.6,1.3-4.9c-0.3,0-1.6-0.1-5,1l-7.6,2.4l5.5-5.8c2.7-2.8,3-3.9,3.1-4.2
	c-0.2-0.2-1.2-0.8-5.1-1.2l-7.5-0.8l6.9-3.1c3.6-1.6,4.3-2.5,4.5-2.7c-0.1-0.2-0.8-1.2-4.2-3l-7-3.8l8-0.1c3.7,0,4.8-0.5,5.1-0.6
	c-0.1-0.3-0.5-1.4-2.8-4.3l-5.2-6.2l7.6,3c2.8,1.1,4.1,1.3,4.7,1.3c0.1,0,0.1,0,0.2,0c0.1-0.3,0.1-1.6-1-5L18,8.1l5.8,5.5
	c2.8,2.7,3.9,3,4.2,3.1c0.2-0.2,0.8-1.2,1.2-5.1L30,4.1l3.1,6.9c1.6,3.6,2.5,4.3,2.7,4.5c0.2-0.1,1.2-0.8,3-4.2l3.8-7l0.1,8
	c0,3.7,0.5,4.8,0.6,5.1c0.3-0.1,1.5-0.5,4.3-2.8l6.2-5.2l-3,7.6c-1.3,3.4-1.4,4.6-1.3,4.9c0.4,0.1,1.7,0.1,5-1l7.6-2.4l-5.5,5.8
	c-2.7,2.8-3,3.9-3.1,4.2c0.2,0.2,1.2,0.8,5.1,1.2l7.5,0.8l-6.8,3.1c-3.6,1.6-4.3,2.5-4.5,2.7c0.1,0.2,0.8,1.2,4.2,3l7,3.8l-8,0.1
	c-3.7,0-4.8,0.5-5.1,0.6c0.1,0.3,0.5,1.4,2.8,4.3l5.2,6.3l-7.6-3c-3.5-1.4-4.6-1.4-4.9-1.3c0,0.2-0.1,1.4,1,5l2.4,7.6l-5.8-5.5
	c-2.8-2.7-3.9-3-4.2-3.1c-0.2,0.2-0.8,1.2-1.2,5.1L40,66.6z M34.1,53.6c0.9,0,2.1,0.7,4.3,5.5l0.6,1.3l0.2-1.4
	c0.6-5.3,1.5-6.3,2.3-6.5c0.2-0.1,0.3-0.1,0.5-0.1c0.7,0,2,0.4,5.4,3.5l1.1,1L48,55.5c-1.6-5-1.2-6.2-0.5-6.8
	c0.3-0.3,0.8-0.4,1.4-0.4c1.1,0,2.9,0.5,5.4,1.4l1.4,0.5l-0.9-1.1c-3.3-4-3.4-5.3-3.1-6.1c0.3-0.8,1.4-1.5,6.6-1.6l1.5,0l-1.3-0.7
	c-4.6-2.5-5.2-3.7-5.1-4.6c0-0.8,0.7-2,5.5-4.2l1.2-0.6l-1.4-0.2c-5.3-0.6-6.3-1.5-6.5-2.3c-0.3-0.8-0.1-2.1,3.5-5.9l1-1.1l-1.4,0.4
	c-2.3,0.7-4,1.1-5.1,1.1c-0.8,0-1.3-0.2-1.7-0.5c-0.6-0.6-0.9-1.9,1-6.7l0.5-1.4l-1.1,0.9C45.3,18.6,44,19,43.3,19
	c-0.2,0-0.4,0-0.6-0.1c-0.8-0.3-1.5-1.4-1.6-6.6l0-1.5L40.4,12c-2.5,4.6-3.7,5.1-4.5,5.1c-0.9,0-2.1-0.7-4.3-5.5L31,10.4l-0.2,1.4
	c-0.6,5.3-1.5,6.3-2.3,6.5c-0.2,0.1-0.3,0.1-0.5,0.1c-0.7,0-2-0.4-5.4-3.5l-1.1-1l0.4,1.4c1.6,5,1.1,6.3,0.5,6.8
	c-0.9,0.8-2.9,0.5-6.7-1l-1.4-0.5l0.9,1.1c3.3,4,3.4,5.3,3.1,6.1c-0.3,0.8-1.4,1.5-6.6,1.6l-1.5,0l1.3,0.7c4.6,2.5,5.2,3.7,5.1,4.6
	c0,0.8-0.7,2-5.5,4.2L10,39.4l1.4,0.2c5.3,0.6,6.3,1.5,6.5,2.3c0.3,0.8,0.1,2.1-3.5,5.9l-1,1.1l1.4-0.4c2.3-0.7,4-1.1,5.1-1.1
	c0.8,0,1.3,0.2,1.7,0.5c0.5,0.6,0.9,1.9-1,6.7l-0.5,1.4l1.1-0.9c3.5-2.9,4.8-3.2,5.4-3.2c0.2,0,0.4,0,0.6,0.1
	c0.8,0.3,1.5,1.4,1.6,6.6l0,1.5l0.7-1.3C32.1,54.2,33.3,53.6,34.1,53.6z M35,49.2c-7.6,0-13.8-6.2-13.8-13.8
	c0-7.6,6.2-13.8,13.8-13.8s13.8,6.2,13.8,13.8C48.8,43,42.6,49.2,35,49.2z M35,23.2c-6.7,0-12.1,5.4-12.1,12.1
	c0,6.7,5.4,12.1,12.1,12.1s12.1-5.4,12.1-12.1C47.1,28.7,41.7,23.2,35,23.2z"/>
</svg>
