<?xml version="1.0" encoding="utf-8"?>
<!-- Generator: Adobe Illustrator 18.1.1, SVG Export Plug-In . SVG Version: 6.00 Build 0)  -->
<svg version="1.1" id="Layer_1" xmlns="http://www.w3.org/2000/svg" xmlns:xlink="http://www.w3.org/1999/xlink" x="0px" y="0px"
	 viewBox="0 0 30 30" enable-background="new 0 0 30 30" xml:space="preserve">
<path fill-rule="evenodd" clip-rule="evenodd" fill="none" stroke="#1779BF" stroke-width="0.7" stroke-miterlimit="10" d="
	M7.9,26.6l-1.2-1.9c0,0,0,0,0,0c2.8-1.6,5-3,7.2-5.1c2.1-2,3.8-4.4,4.6-7.3c0.3-0.9,0.3-2.4,0.3-2.4s-0.7,1.4-1,2
	c-1.1,2.4-2.9,4.8-4.8,6.6c-1.4,1.3-3,2.4-3.8,2.6c0,0-0.5-1-0.5-1c-1-2.2-0.7-4.7,0.4-6.8C10.5,11,12.9,10,14.7,8
	c1.5-1.5,2.6-2.7,3.8-4.6c2.4,2.9,5,6.9,4.7,10.9c-0.3,3.7-2.3,6.5-5.5,8.1c-2,1-3.3,1.2-5.5,1.2L7.9,26.6z"/>
</svg>
