<?xml version="1.0" encoding="utf-8"?>
<!-- Generator: Adobe Illustrator 18.1.0, SVG Export Plug-In . SVG Version: 6.00 Build 0)  -->
<svg version="1.1" id="Layer_1" xmlns="http://www.w3.org/2000/svg" xmlns:xlink="http://www.w3.org/1999/xlink" x="0px" y="0px"
	 viewBox="410 10 180 180" enable-background="new 410 10 180 180" xml:space="preserve">
<g>
	<g>
		<path fill="#157ABF" d="M479.8,37L479.8,37c0.4,0,0.8,0,1.2,0.1c5.9,0.6,10.7,5.9,15,10.7c0.3,0.3,0.6,0.6,0.9,1
			c-2,3-7.2,11.1-18.8,31l-22.5-13.3l16.6-26.2C473.6,37.8,477.2,37,479.8,37 M497.2,37.9l26,0.1h0.1h0.1c0.2,0,0.4,0,0.6,0
			c3.6,0,5.7,3.1,5.8,3.2c0,0.1,3.1,4.9,8.8,15l1.2,2.1l2.1-1.2l3.3-1.9l-12,20.4l-23.5-1.1l4.8-2.7l1.8-1l-0.7-1.9
			c-5-13.4-11-22.2-15.1-27.2C499.2,40.1,498.1,38.9,497.2,37.9 M551,76.1l15.6,26.8c1.6,2.6,0.5,6.7-1.2,9.4
			c-3.2,5-10.3,6.8-16.5,8.4c-0.4,0.1-0.8,0.2-1.2,0.3c-1.8-3.2-6.6-11.5-18.9-31L551,76.1 M439.2,82.2l23.7,1l10.2,21.3l-4.7-3
			l-1.8-1.1l-1.4,1.5c-9.5,10.8-14.4,20.1-16.9,26.1c-0.7,1.6-1.2,3.1-1.7,4.4l-12.2-22.8l-0.1-0.1l-0.1-0.1c-2.2-3.3-0.3-7-0.2-7.1
			c0-0.1,2.8-5,9-14.8l1.3-2.1l-2.1-1.3L439.2,82.2 M519.2,120.4l0.2,5.5l0.1,2.1l2,0.2c4.7,0.6,9.4,0.9,13.8,0.9
			c9.9,0,17.2-1.4,21.9-2.8l-12,23l-0.1,0.1l-0.1,0.1c-1.4,3.7-5.6,4.1-5.8,4.2c-0.1,0-5.7,0.6-17.2,1l-2.4,0.1l0.1,2.4l0.2,3.8
			l-12.6-20.1L519.2,120.4 M456.5,127.7c3.7,0.3,13.2,1,36.3,1.9l-1,26.1l-31-2.2c-3-0.2-5.8-3.3-7-6.2c-2.3-5.4,0.1-12.3,2.2-18.3
			C456.1,128.6,456.3,128.1,456.5,127.7 M479.8,34.6c-3.6,0-7.8,1.4-9.7,4.4l-17.9,28.3l1.5,1L478.8,83
			c17.3-29.6,21.1-34.5,21.1-34.5c-5-5.4-10.8-13.2-18.7-13.9C480.7,34.6,480.3,34.6,479.8,34.6L479.8,34.6z M490.9,35.5
			c0,0,12.7,8.7,22.2,34l-12,6.8l33.2,1.6l17.5-29.6l-11.3,6.6c-5.8-10.3-8.9-15.1-8.9-15.1s-2.7-4.3-7.8-4.3c-0.2,0-0.5,0-0.8,0
			H490.9L490.9,35.5z M551.9,72.8l-1.5,0.9l-24.8,15.5c18.3,29,21.1,34.6,21.1,34.6c7.1-2,16.7-3.6,21-10.3
			c2.1-3.4,3.4-8.3,1.2-11.9L551.9,72.8L551.9,72.8z M430.1,79.5l11.1,6.8c-6.2,9.9-9.1,14.9-9.1,14.9s-2.8,5,0.3,9.6l15.1,28.4
			c0,0,1.7-15.1,19.5-35.6l11.7,7.3l-14.3-30.1L430.1,79.5L430.1,79.5z M521.3,112.1l-16.7,28.8l18.3,29.2l-0.6-13.1
			c11.8-0.4,17.4-1,17.4-1s5.7-0.5,7.8-5.6l14.9-28.5c0,0-9,4.8-26.9,4.8c-4,0-8.6-0.2-13.5-0.9L521.3,112.1L521.3,112.1z
			 M454.8,125.1c-2.4,7-6.5,15.8-3.4,23.1c1.5,3.5,4.9,7.4,9.1,7.7l33.3,2.3l0.2-1.8l1.2-29.2C460.9,126,454.8,125.1,454.8,125.1
			L454.8,125.1z"/>
	</g>
</g>
</svg>
