<?xml version="1.0" encoding="utf-8"?>
<!-- Generator: Adobe Illustrator 18.1.1, SVG Export Plug-In . SVG Version: 6.00 Build 0)  -->
<svg version="1.1" id="Layer_1" xmlns="http://www.w3.org/2000/svg" xmlns:xlink="http://www.w3.org/1999/xlink" x="0px" y="0px"
	 viewBox="0 0 70 70" enable-background="new 0 0 70 70" xml:space="preserve">
<g>
	<path fill="#1279BF" d="M56.3,62H17.9c-1.6,0-2.9-0.6-3.5-1.7c-0.6-1.1-0.5-2.5,0.2-3.9l14.1-25.4l2.5-4.3V8.7
		c-0.7-0.1-1.2-0.6-1.2-1.3V5.3c0-0.7,0.6-1.3,1.3-1.3h11.7c0.7,0,1.3,0.6,1.3,1.3v2.1c0,0.7-0.5,1.3-1.2,1.3v18.1l16.7,29.9
		c0.7,1.3,0.7,2.6,0,3.6C59.1,61.4,57.9,62,56.3,62z M31.4,7.2h1.2v20L30,31.8L16,57.2c-0.5,0.9-0.6,1.8-0.3,2.4
		c0.4,0.6,1.1,0.9,2.2,0.9h38.4c1,0,1.8-0.3,2.2-0.9c0.3-0.5,0.3-1.3-0.1-2.1l-0.2-0.3L41.5,27.2v-20h1.2V5.5H31.4V7.2z M54,56.9
		H20.2l11.1-20.1h11.5L54,56.9z M22.7,55.4h28.8l-9.5-17.1h-9.8L22.7,55.4z"/>
	<circle fill="#1279BF" cx="42.2" cy="49.6" r="3.8"/>
	<circle fill="#1279BF" cx="33.7" cy="46.8" r="3.6"/>
	<circle fill="#1279BF" cx="38.4" cy="41.6" r="2.3"/>
</g>
</svg>
