<?xml version="1.0" encoding="utf-8"?>
<!-- Generator: Adobe Illustrator 18.1.1, SVG Export Plug-In . SVG Version: 6.00 Build 0)  -->
<svg version="1.1" id="Layer_1" xmlns="http://www.w3.org/2000/svg" xmlns:xlink="http://www.w3.org/1999/xlink" x="0px" y="0px"
	 viewBox="0 0 70 70" enable-background="new 0 0 70 70" xml:space="preserve">
<path fill="#1279BF" d="M36.2,28.9c-0.1,0.5-0.1,0.9-0.1,1.4c0,2.7,0.8,5.2,2.4,7.4H15.8v-8.7H36.2 M37.7,27.6H14.5v11.2h26.8
	c-2.4-2.1-3.9-5.2-3.9-8.6C37.4,29.3,37.5,28.5,37.7,27.6L37.7,27.6z"/>
<path fill="#1279BF" d="M22.5,31.1v3.6h-3.4v-3.6H22.5 M23.8,29.9h-5.9V36h5.9V29.9L23.8,29.9z"/>
<path fill="#1279BF" d="M48.9,22.8C48.9,22.8,48.9,22.8,48.9,22.8c0.8,0,1.5,0.1,2.2,0.3c2.9,0.9,4.9,3.7,4.9,6.8
	c0,0.7-0.1,1.4-0.4,2.2l-0.3,1l0.8,0.5c0.5,0.4,5.3,4.2,8.6,7c0,0.2-0.1,0.5-0.4,0.9c-0.3,0.5-0.7,0.7-0.9,0.7L54.8,36
	c0-0.1-0.1-0.1-0.2-0.2l-0.7-0.7L53,35.7c-1.2,0.9-2.6,1.3-4.1,1.3c-3.9,0-7.1-3.2-7.1-7.1c0-3.8,2.9-6.9,6.7-7.1
	C48.7,22.8,48.8,22.8,48.9,22.8 M48.9,21.6c-0.2,0-0.3,0-0.5,0c-4.4,0.2-7.9,3.9-7.9,8.3c0,4.6,3.7,8.3,8.3,8.3
	c1.8,0,3.4-0.6,4.8-1.6c0.1,0.1,0.1,0.1,0.1,0.2l9.2,6.6c0,0,0,0,0,0c0.2,0,1.2-0.1,2.2-1.3c1.1-1.4,0.6-2.3,0.6-2.3s-9-7.3-9.1-7.3
	c0.3-0.8,0.5-1.7,0.5-2.6c0-3.7-2.4-6.9-5.8-7.9C50.7,21.7,49.8,21.6,48.9,21.6L48.9,21.6z"/>
<path fill="#1279BF" d="M49.1,26.5c1.9,0,3.4,1.5,3.4,3.4c0,1.9-1.5,3.5-3.4,3.5c-1.9,0-3.4-1.5-3.4-3.5
	C45.7,28,47.2,26.5,49.1,26.5 M49.1,25.2c-2.6,0-4.7,2.1-4.7,4.7c0,2.6,2.1,4.7,4.7,4.7c2.6,0,4.7-2.1,4.7-4.7
	C53.8,27.3,51.7,25.2,49.1,25.2L49.1,25.2z"/>
<path fill="#1279BF" d="M50.2,14v3.7c-0.5-0.1-0.9-0.1-1.4-0.1c-0.2,0-0.3,0-0.5,0c-3.8,0.1-7.4,2-9.7,5.1H15.7V14H50.2 M51.5,12.7
	h-37v11.2h24.8c2-3,5.3-5,9.1-5.1c0.1,0,0.3,0,0.4,0c0.9,0,1.8,0.1,2.6,0.3V12.7L51.5,12.7z"/>
<path fill="#1279BF" d="M22.7,16.4v3.4h-3.4v-3.4H22.7 M24,15.2h-5.9V21H24V15.2L24,15.2z"/>
<path fill="#1279BF" d="M50.2,43.8L50.2,43.8l0,9l-34.5,0v-9H50.2 M51.5,42.6h-37v11.5l37,0L51.5,42.6L51.5,42.6L51.5,42.6
	L51.5,42.6z"/>
<path fill="#1279BF" d="M22.5,45.9v3.4h-3.4v-3.4H22.5 M23.8,44.7h-5.9v5.9h5.9V44.7L23.8,44.7z"/>
</svg>
