<?xml version="1.0" encoding="utf-8"?>
<!-- Generator: Adobe Illustrator 18.1.1, SVG Export Plug-In . SVG Version: 6.00 Build 0)  -->
<svg version="1.1" id="Layer_1" xmlns="http://www.w3.org/2000/svg" xmlns:xlink="http://www.w3.org/1999/xlink" x="0px" y="0px"
	 viewBox="0 0 65 65" enable-background="new 0 0 65 65" xml:space="preserve">
<g>
	<path fill="#157ABF" d="M27.5,17.4v40.2H13.3V17.4H27.5 M27.6,15.3H13.2c-1.1,0-2,0.9-2,2v40.5c0,1.1,0.9,2,2,2h14.5
		c1.1,0,2-0.9,2-2V17.3C29.6,16.2,28.7,15.3,27.6,15.3L27.6,15.3z"/>
</g>
<g>
	<path fill="#157ABF" d="M51.7,9.4v40.2H37.5V9.4H51.7 M51.8,7.3H37.4c-1.1,0-2,0.9-2,2v40.5c0,1.1,0.9,2,2,2h14.5c1.1,0,2-0.9,2-2
		V9.3C53.8,8.2,52.9,7.3,51.8,7.3L51.8,7.3z"/>
</g>
<g>
	<line fill="#157ABF" x1="27.8" y1="16.9" x2="37.1" y2="8.3"/>
	
		<rect x="31.4" y="6.3" transform="matrix(0.6757 0.7371 -0.7371 0.6757 19.8071 -19.8423)" fill="#157ABF" width="2.1" height="12.6"/>
</g>
<g>
	<line fill="#157ABF" x1="27.8" y1="58.8" x2="37.1" y2="50.3"/>
	
		<rect x="31.4" y="48.2" transform="matrix(0.6755 0.7373 -0.7373 0.6755 50.7408 -6.2377)" fill="#157ABF" width="2.1" height="12.6"/>
</g>
</svg>
