<?xml version="1.0" encoding="utf-8"?>
<!-- Generator: Adobe Illustrator 18.1.0, SVG Export Plug-In . SVG Version: 6.00 Build 0)  -->
<svg version="1.1" id="Layer_1" xmlns="http://www.w3.org/2000/svg" xmlns:xlink="http://www.w3.org/1999/xlink" x="0px" y="0px"
	 viewBox="-53 0 180 180" enable-background="new -53 0 180 180" xml:space="preserve">
<g>
	<g>
		<path fill="#157ABF" d="M22.8,43.7c13.5,0,25.4,8,30.5,20.5l1.9,4.6l3.8-3.3c2.6-2.3,6-3.6,9.5-3.6c8.1,0,14.7,6.6,14.7,14.7
			c0,2.9-0.8,5.5-2.4,7.9l-2.7,4.3l5,1.2c10.8,2.5,18.5,12.2,18.5,23.2c0,13.1-10.7,23.8-23.8,23.8H0.1c-15.6,0-28.4-12.7-28.4-28.4
			c0-11,6.4-21,16.3-25.6l2.3-1.1l-0.1-2.5c-0.1-1-0.1-1.9-0.1-2.9C-10.2,58.4,4.6,43.7,22.8,43.7 M22.8,40.1
			c-20.3,0-36.6,16.3-36.6,36.6c0,1,0.1,2,0.1,3.1c-10.8,5.1-18.5,16.1-18.5,28.9c0,17.6,14.3,31.9,31.9,31.9h77.7
			c15.1,0,27.4-12.3,27.4-27.4c0-13-9.1-23.8-21.2-26.7c1.9-2.9,3-6.2,3-9.9c0-10-8.2-18.2-18.2-18.2c-4.5,0-8.7,1.7-11.8,4.4
			C51.2,49.5,38.1,40.1,22.8,40.1L22.8,40.1z"/>
	</g>
</g>
</svg>
