<?xml version="1.0" encoding="utf-8"?>
<!-- Generator: Adobe Illustrator 18.1.1, SVG Export Plug-In . SVG Version: 6.00 Build 0)  -->
<svg version="1.1" id="Layer_1" xmlns="http://www.w3.org/2000/svg" xmlns:xlink="http://www.w3.org/1999/xlink" x="0px" y="0px"
	 viewBox="0 0 70 70" enable-background="new 0 0 70 70" xml:space="preserve">
<rect x="25.8" y="46.2" fill="#FFFFFF" width="4.4" height="15.8"/>
<g>
	<path fill="#1279BF" d="M13.8,63.6H7.6V50.2h6.1V63.6z M9.1,62.1h3.1V51.7H9.1V62.1z"/>
	<path fill="#1279BF" d="M22,63.6h-6.1V45.7H22V63.6z M17.3,62.1h3.1V47.2h-3.1V62.1z"/>
	<path fill="#1279BF" d="M30.2,63.6h-6.1V40.1h6.1V63.6z M25.6,62.1h3.1V41.6h-3.1V62.1z"/>
	<path fill="#1279BF" d="M38.4,63.6h-6.1v-32h6.1V63.6z M33.8,62.1h3.1v-29h-3.1V62.1z"/>
	<path fill="#1279BF" d="M46.6,63.6h-6.1V21.5h6.1V63.6z M42,62.1h3.1V23H42V62.1z"/>
	<path fill="#1279BF" d="M54.8,63.6h-6.1V14.8h6.1V63.6z M50.2,62.1h3.1V16.3h-3.1V62.1z"/>
	<path fill="#1279BF" d="M63,63.6h-6.1V8.4H63V63.6z M58.4,62.1h3.1V9.9h-3.1V62.1z"/>
</g>
</svg>
