<?xml version="1.0" encoding="utf-8"?>
<!-- Generator: Adobe Illustrator 18.1.1, SVG Export Plug-In . SVG Version: 6.00 Build 0)  -->
<svg version="1.1" id="Layer_1" xmlns="http://www.w3.org/2000/svg" xmlns:xlink="http://www.w3.org/1999/xlink" x="0px" y="0px"
	 viewBox="10 0 45 45" enable-background="new 10 0 45 45" xml:space="preserve">
<g>
	<path fill="#1279BF" d="M47.8,32.7H12.8c-1.7,0-2.4-1.5-2.4-2.5V13c0-0.1,0-1.1,0.7-1.8c0.3-0.3,0.9-0.7,1.8-0.7h34.6
		c2.1,0,3,1.5,3.2,2.3V13v2.7h2.2c0.7,0,1.7,0.5,1.7,1.9v8.1c0,1.4-1,1.9-1.6,2h-2.2v2.7C50.8,31.3,49.6,32.7,47.8,32.7z M12.8,12.1
		c-0.3,0-0.5,0.1-0.6,0.3C12,12.6,12.1,13,12.1,13v17.2c0,0.2,0.1,0.8,0.7,0.8h34.9c0.9,0,1.2-0.4,1.2-0.9v-4.3h3.8
		c-0.1,0,0-0.1,0-0.3v-8.2c0-0.2,0-0.2,0-0.3h-3.8V13c-0.1-0.2-0.4-0.9-1.5-0.9L12.8,12.1L12.8,12.1z M48,30.1H13.2V13.2H48V30.1z
		 M14.8,28.4h31.5V14.9H14.8V28.4z"/>
	<polygon fill="#1279BF" points="16.3,16.4 29,16.4 26.6,26.9 16.3,26.9 	"/>
</g>
</svg>
