<?xml version="1.0" encoding="utf-8"?>
<!-- Generator: Adobe Illustrator 17.1.0, SVG Export Plug-In . SVG Version: 6.00 Build 0)  -->
<!DOCTYPE svg PUBLIC "-//W3C//DTD SVG 1.1//EN" "http://www.w3.org/Graphics/SVG/1.1/DTD/svg11.dtd">
<svg version="1.1" id="addressbook" xmlns="http://www.w3.org/2000/svg" xmlns:xlink="http://www.w3.org/1999/xlink" x="0px"
	 y="0px" width="140px" height="140px" viewBox="0 6.7 140 140" enable-background="new 0 6.7 140 140" xml:space="preserve">
<g>
	<rect x="35.5" y="27.6" fill="none" stroke="#0079C2" stroke-width="3" stroke-miterlimit="10" width="61.1" height="70.9"/>
	<path fill="none" stroke="#0079C2" stroke-width="3" stroke-miterlimit="10" d="M96.6,98.6H35.5v4.5c0,4.7,3.6,8.3,8.3,8.3h50.8
		c0.9,0,1.9-0.5,1.9-1.5v-4.5H44"/>
	<path fill="none" stroke="#0079C2" stroke-width="3" stroke-miterlimit="10" d="M104,53.5h-7.4V33.6h7.4c0.9,0,1.5,0.1,1.5,1v17.8
		C105.5,53.4,105,53.5,104,53.5z"/>
	<path fill="none" stroke="#0079C2" stroke-width="3" stroke-miterlimit="10" d="M104,73.5h-7.4V53.6h7.4c0.9,0,1.5,0.5,1.5,1.5
		v16.4C105.5,72.4,105,73.5,104,73.5z"/>
	<path fill="none" stroke="#0079C2" stroke-width="3" stroke-miterlimit="10" d="M104,93.6h-7.4V73.4h7.4c0.9,0,1.5,0.9,1.5,1.9
		v16.6C105.5,93,105,93.6,104,93.6z"/>
	<g>
		<path fill="#0079C2" d="M75.1,79c-2.9,1.4-5.7,1.9-9.1,1.9c-8.3,0-15.4-6-15.4-15.7c0-10.3,7.3-19.1,18.5-19.1
			c8.8,0,14.9,6.1,14.9,14.4c0,7.4-4.2,11.9-9.2,11.9c-2.2,0-4-1.3-4.1-4.1h-0.1c-1.7,2.7-3.9,4.1-6.7,4.1c-3.1,0-5.5-2.4-5.5-6.4
			c0-6.2,4.7-11.7,11.8-11.7c2.2,0,4.4,0.5,5.8,1.2l-1.7,9.2c-0.6,3.3-0.1,4.9,1.4,4.9c2.3,0.1,5.1-2.9,5.1-8.7
			c0-6.9-4.3-11.9-12-11.9c-8,0-14.6,6.2-14.6,16c0,8.4,5.4,13.3,12.8,13.3c2.7,0,5.4-0.5,7.4-1.7L75.1,79z M71.4,58
			c-0.5-0.1-1.2-0.3-2-0.3c-3.8,0-6.8,3.7-6.8,8c0,2.1,0.9,3.5,2.8,3.5c2.3,0,4.6-3,5.1-6L71.4,58z"/>
	</g>
</g>
</svg>
