<?xml version="1.0" encoding="utf-8"?>
<!-- Generator: Adobe Illustrator 17.1.0, SVG Export Plug-In . SVG Version: 6.00 Build 0)  -->
<!DOCTYPE svg PUBLIC "-//W3C//DTD SVG 1.1//EN" "http://www.w3.org/Graphics/SVG/1.1/DTD/svg11.dtd">
<svg version="1.1" id="cap" xmlns="http://www.w3.org/2000/svg" xmlns:xlink="http://www.w3.org/1999/xlink" x="0px" y="0px"
	 viewBox="0 0 140 140" enable-background="new 0 0 140 140" xml:space="preserve">
<path fill="#FFFFFF" d="M113.9,50.7L70.3,35.1c-0.3-0.1-0.6-0.1-0.9,0L26.1,50.7c-0.6,0.2-0.9,0.7-0.9,1.3c0,0.6,0.4,1.1,0.9,1.3
	l17.8,6.4v17.9l0,0.1c0.1,1,1.9,10.1,27.3,10.1c25.4,0,26.6-9,26.7-10.1l0-18.9l7.9-2.5v16.4c-0.7,0.5-1.1,1.2-1.1,2.1
	c0,1,0.6,2,1.5,2.3L104.6,90h5.4l-1.8-12.7c0.9-0.4,1.5-1.3,1.5-2.3c0-0.9-0.5-1.7-1.1-2.1V55.4l5.3-2.1c0.6-0.2,0.9-0.7,0.9-1.3
	C114.8,51.4,114.5,50.9,113.9,50.7z M95.1,77.6c-0.2,0.7-2.1,7.5-24,7.5c-22.1,0-24.4-7-24.5-7.5V60.8l22.9,8.1
	C69.7,69,69.8,69,70,69s0.3,0,0.5-0.1l24.7-9V77.6z M70.2,66.1L30.9,52l39-14.1L109.4,52L70.2,66.1z"/>
</svg>
