<?xml version="1.0" encoding="utf-8"?>
<!-- Generator: Adobe Illustrator 18.1.1, SVG Export Plug-In . SVG Version: 6.00 Build 0)  -->
<svg version="1.1" id="Layer_1" xmlns="http://www.w3.org/2000/svg" xmlns:xlink="http://www.w3.org/1999/xlink" x="0px" y="0px"
	 viewBox="0 0 70 70" enable-background="new 0 0 70 70" xml:space="preserve">
<g>
	<path fill="#1279BF" d="M53.7,49.3H11.1c-1.9,0-2.6-1.6-2.6-2.7V25.5c0-0.1,0-1.2,0.7-2c0.3-0.4,0.9-0.8,2-0.8h42.2
		c2.4,0,3.4,1.7,3.6,2.6l0,0.2V29h2.9c0.6,0,1.8,0.4,1.8,2.1v9.9c0,1.5-1,2.1-1.7,2.1l-2.9,0l0,3.7C56.7,47.6,55.9,49.3,53.7,49.3z
		 M11.1,24.2c-0.4,0-0.7,0.1-0.9,0.3c-0.3,0.3-0.3,0.8-0.3,0.9l0,21.1c0,0.3,0.1,1.2,1.1,1.2h42.6c1.3,0,1.7-1.1,1.8-1.3v-4.9h4.4
		c0.2,0,0.3-0.3,0.3-0.6V31c0-0.2,0-0.5-0.3-0.6h-4.4v-4.9c-0.1-0.3-0.5-1.3-2.1-1.3H11.1z M53.8,46.1H11.7V25.9h42.1V46.1z
		 M13.2,44.6h39.1V27.4H13.2V44.6z"/>
	<polygon fill="#1279BF" points="15.3,29.6 30.8,29.6 27.8,42.4 15.3,42.4 	"/>
</g>
</svg>
