<?xml version="1.0" encoding="utf-8"?>
<!-- Generator: Adobe Illustrator 18.1.1, SVG Export Plug-In . SVG Version: 6.00 Build 0)  -->
<svg version="1.1" id="Layer_1" xmlns="http://www.w3.org/2000/svg" xmlns:xlink="http://www.w3.org/1999/xlink" x="0px" y="0px"
	 viewBox="0 0 75 75" enable-background="new 0 0 75 75" xml:space="preserve">
<g>
	<path fill="none" stroke="#1288C9" stroke-width="1.5" stroke-miterlimit="10" d="M37.3,64.8c-4.4,0-8-0.5-8.6-0.7
		c-0.9-0.3-1.4-1.3-1.1-2.2c0.3-0.9,1.3-1.4,2.2-1.2c1.1,0.3,9.6,1.2,15.8-0.3c1-0.2,1.9,0.3,2.2,1.3c0.2,1-0.3,1.9-1.3,2.2
		C43.6,64.5,40.3,64.8,37.3,64.8L37.3,64.8z"/>
	<path fill="none" stroke="#1288C9" stroke-width="1.5" stroke-miterlimit="10" d="M37.3,59.5c2.9,0,6.2-0.2,9.2-1
		c1-0.2,1.5-1.2,1.3-2.2c-0.2-1-1.2-1.5-2.2-1.3c-6.1,1.6-14.7,0.6-15.8,0.3c-0.9-0.3-1.9,0.2-2.2,1.2c-0.3,0.9,0.2,1.9,1.1,2.2
		C29.4,59,33,59.5,37.3,59.5L37.3,59.5z"/>
	<g>
		<path fill="none" stroke="#1288C9" stroke-width="1.5" stroke-miterlimit="10" d="M67.8,27.6c0,1.4-1.1,2.5-2.5,2.5H61
			c0.1-0.7,0.1-1.5,0.1-2.2c0-1-0.1-1.9-0.2-2.8h4.3C66.7,25.1,67.8,26.2,67.8,27.6z"/>
		<path fill="none" stroke="#1288C9" stroke-width="1.5" stroke-miterlimit="10" d="M55.8,13L59,9.8c1-1,1-2.6,0-3.6
			c-1-1-2.6-1-3.6,0l-3.2,3.2C53.5,10.5,54.8,11.7,55.8,13z"/>
		<path fill="none" stroke="#1288C9" stroke-width="1.5" stroke-miterlimit="10" d="M19.5,13c1.1-1.3,2.3-2.5,3.6-3.5l-3.2-3.2
			c-1-1-2.6-1-3.6,0c-1,1-1,2.6,0,3.6L19.5,13z"/>
		<path fill="none" stroke="#1288C9" stroke-width="1.5" stroke-miterlimit="10" d="M56.1,42.4c-1,1.3-2.2,2.5-3.5,3.6l2.9,2.9
			c1,1,2.6,1,3.6,0c1-1,1-2.6,0-3.6L56.1,42.4z"/>
		<path fill="none" stroke="#1288C9" stroke-width="1.5" stroke-miterlimit="10" d="M14.2,27.9c0-1,0.1-1.9,0.2-2.8H10
			c-1.4,0-2.5,1.1-2.5,2.5c0,1.4,1.1,2.5,2.5,2.5h4.3C14.2,29.4,14.2,28.6,14.2,27.9z"/>
		<path fill="none" stroke="#1288C9" stroke-width="1.5" stroke-miterlimit="10" d="M19.3,42.4l-2.9,2.9c-1,1-1,2.6,0,3.6
			c1,1,2.6,1,3.6,0l2.9-2.9C21.5,45,20.3,43.7,19.3,42.4z"/>
	</g>
	<path fill="none" stroke="#1288C9" stroke-width="1.5" stroke-miterlimit="10" d="M42.6,66.5c-1.6,0.2-3.4,0.3-5.2,0.3
		c-1.6,0-3.2-0.1-4.6-0.2c-0.9-0.1,1.1,2.9,4.9,2.9C41.7,69.5,43.5,66.4,42.6,66.5z"/>
	<path fill="none" stroke="#1288C9" stroke-width="1.5" stroke-miterlimit="10" d="M37.7,7.8c-11.1,0-20.1,9-20.1,20.1
		c0,5.8,2.9,10,5.7,14c2.8,3.5,4.4,8.8,4.8,10.2c0.1,0.5,0.6,0.8,0.8,0.8c1.2,0.1,4.4,0.4,8.3,0.4c3.6,0,6.8-0.2,9.3-0.7
		c0.5-0.1,0.8-0.5,0.9-0.9c0.5-1.8,2.1-6.6,4.7-9.9c2.8-4,5.7-8.2,5.7-14C57.8,16.8,48.8,7.8,37.7,7.8z"/>
</g>
</svg>
