<?xml version="1.0" encoding="utf-8"?>
<!-- Generator: Adobe Illustrator 18.1.1, SVG Export Plug-In . SVG Version: 6.00 Build 0)  -->
<svg version="1.1" id="Layer_1" xmlns="http://www.w3.org/2000/svg" xmlns:xlink="http://www.w3.org/1999/xlink" x="0px" y="0px"
	 viewBox="0 0 70 70" enable-background="new 0 0 70 70" xml:space="preserve">
<path fill="#1279BF" d="M35.1,62.8L35.1,62.8c-2.4,0-4.9-0.9-4.9-2.6c0,0,0-0.1,0-0.3c0,0,0-0.1,0-0.3l0-0.1c0-0.1,0-0.1,0-0.2
	l0-0.3c0.2-4.9,1.1-23.1,1.8-36.1h-3.3l-6.7,3.9l-2.3-2.3l7-6.6h5.5c0.1-1.3,0.1-2.6,0.2-3.7h-3.4l-6.3,3.7l-2.2-2.2l6.7-6.3h5.5
	C32.8,7.9,32.8,7,32.8,7c0-0.2,0-0.3,0.1-0.5c0.2-0.7,0.9-1.3,1.8-1.3h1.2c0.9,0,1.6,0.6,1.8,1.5l0,0.1l0,0.3v0c0,0,0,0.8,0.1,2.3
	h5.6l6,5.7l-2.1,2.2l-5.7-3.1H38c0,0.9,0.1,1.9,0.1,2.9l0,0.8h5.7l6.3,6L48,26.2l-6-3.2h-3.6c0.5,12.8,1.2,29.6,1.4,35.3l0,0.2
	c0,0.1,0,0.1,0,0.2l0,0.3c0,0.1,0,0.2,0,0.3l0,0.3c0,0.5,0,0.8,0,0.8C39.9,61.9,37.5,62.8,35.1,62.8z M28.3,21.2h5.6l0,0.9
	c-0.6,13-1.6,32-1.8,37l0,0.2c0,0.1,0,0.2,0,0.3l0,0.1c0,0.1,0,0.1,0,0.2c0,0.2,0,0.2,0,0.2c0.1,0.2,1.2,0.9,3.1,0.9l0,0.9v-0.9
	c1.9,0,2.9-0.6,3-0.8h0c0,0,0-0.3,0-0.7l0-0.2c0-0.1,0-0.2,0-0.3l0-0.4c0-0.1,0-0.2,0-0.2c-0.2-5.9-0.9-23.3-1.4-36.2l0-0.9h5.9
	l5.2,2.8l0,0l-4.5-4.3h-6.7l-0.1-2.5c-0.1-1.4-0.1-2.6-0.1-3.8l0-0.9H42l4.8,2.5l-4.1-3.9h-6.6l0-0.8C36.1,8.6,36,7.5,36,7.2l0-0.1
	c0,0-0.1-0.1-0.1-0.1h-1.2c0,0-0.1,0-0.1,0.1c0,0,0,0,0,0s0,0,0,0c0,0.2-0.1,1.4-0.2,3.2l0,0.8h-6.5l-4.9,4.6l0,0l5.6-3.3h5.7l0,0.9
	c-0.1,1.6-0.2,3.4-0.3,5.5l0,0.8h-6.4l-5.2,4.9l0.1,0.1L28.3,21.2z"/>
</svg>
