<?xml version="1.0" encoding="utf-8"?>
<!-- Generator: Adobe Illustrator 18.1.1, SVG Export Plug-In . SVG Version: 6.00 Build 0)  -->
<svg version="1.1" id="Layer_1" xmlns="http://www.w3.org/2000/svg" xmlns:xlink="http://www.w3.org/1999/xlink" x="0px" y="0px"
	 viewBox="0 0 70 70" enable-background="new 0 0 70 70" xml:space="preserve">
<path fill="#1279BF" d="M35.6,67.1L35.6,67.1c-2.1,0-4.2-0.8-4.2-2.3c0-0.2,1.3-22.4,1.9-32.6l-9.4,13.9l-0.6-0.4
	c-0.6-0.4-0.9-1.1-0.7-1.7l5.3-13.8c0.1-0.4,0.5-0.9,0.8-1.2l3.7-3.5c-0.1-0.3-0.1-0.5-0.1-0.8c0-0.7,0.2-1.4,0.7-2L23.5,5.4
	c-0.1-0.2-0.3-0.5-0.2-0.9c0-0.2,0.2-0.4,0.5-0.6c0.7-0.4,1.4-0.2,1.8,0.3l9.6,11.8c0.3,0.3,0.5,0.9,0.6,1.3l0.8,4.3
	c1.2,0.3,2.1,1.1,2.5,2.2l19.6,0.1c0.7,0,1.3,0.6,1.3,1.3l0,0.3l-0.3,0.3c-0.2,0.2-0.6,0.3-2.5,0.7l-0.4,0.1L44,28.8
	c-0.4,0.1-1.1,0-1.4-0.1l-4.4-1.3c-0.1,0.1-0.2,0.2-0.4,0.3c0.5,9.3,1.9,37,1.9,37.3C39.7,66.4,37.7,67.1,35.6,67.1z M35.1,27
	L35,29.7c0,0.3-2,34.7-2,35.2c0.1,0.2,1,0.7,2.6,0.7l0,0.8v-0.8c1.6,0,2.5-0.5,2.6-0.7c0-0.5-1.9-37.2-1.9-37.6l0-0.5l0.4-0.2
	c0.3-0.1,0.5-0.3,0.7-0.6l0.3-0.4l5.4,1.6c0.2,0.1,0.5,0.1,0.7,0.1l11.7-2l-17.6-0.1l-0.1-0.6c-0.1-0.9-0.9-1.6-1.8-1.6l-0.6,0
	l-1-5.4c0-0.2-0.2-0.5-0.3-0.6l-7.7-9.4l8.5,15.6l-0.4,0.4c-0.4,0.4-0.6,0.9-0.6,1.4c0,0.3,0,0.5,0.1,0.7l0.2,0.5l-4.5,4.2
	c-0.2,0.1-0.4,0.4-0.4,0.6l-4.1,10.7L35.1,27z"/>
</svg>
