<?xml version="1.0" encoding="utf-8"?>
<!-- Generator: Adobe Illustrator 17.1.0, SVG Export Plug-In . SVG Version: 6.00 Build 0)  -->
<!DOCTYPE svg PUBLIC "-//W3C//DTD SVG 1.1//EN" "http://www.w3.org/Graphics/SVG/1.1/DTD/svg11.dtd">
<svg version="1.1" id="question" xmlns="http://www.w3.org/2000/svg" xmlns:xlink="http://www.w3.org/1999/xlink" x="0px" y="0px" viewBox="0 0 120 120"
	 enable-background="new 0 0 120 120" xml:space="preserve">
<g>
	<path fill="none" stroke="#0079C2" stroke-width="3" stroke-miterlimit="10" d="M67.442,76.5c0.082-4,0.601-7.829,2.366-10.14
		c3.93-5.144,16.23-9.587,16.662-22.755C86.943,29.202,76.353,19,59.282,18.88c-18.163-0.128-26.659,10.134-27.465,24.196
		c-0.027,0.47-0.038,0.921-0.033,1.362l15.633-0.012c0.367-6.956,3.794-12.451,11.623-12.301
		c9.008,0.173,11.153,6.214,10.947,12.056c-0.276,7.83-9.83,10.45-14.604,17.282c-2.367,3.388-2.84,8.038-2.84,15.038H67.442z"/>
	<rect x="52.5" y="83.5" fill="none" stroke="#0079C2" stroke-width="3" stroke-miterlimit="10" width="15" height="15"/>
</g>

</svg>
