<?xml version="1.0" encoding="utf-8"?>
<!-- Generator: Adobe Illustrator 18.1.1, SVG Export Plug-In . SVG Version: 6.00 Build 0)  -->
<svg version="1.1" id="Layer_1" xmlns="http://www.w3.org/2000/svg" xmlns:xlink="http://www.w3.org/1999/xlink" x="0px" y="0px"
	 viewBox="0 0 70 70" enable-background="new 0 0 70 70" xml:space="preserve">
<path fill="#1279BF" d="M17.9,63.8l-3.6-5.7l0.7-0.6c7.2-3.9,12.1-7.4,17-12.1c5.5-5.3,9.1-11,10.8-17.1c0.1-0.4,0.2-1,0.3-1.5
	c-0.2,0.4-0.3,0.7-0.5,1c-2.6,5.8-6.9,11.6-11.8,16.1c-2.9,2.6-7.1,5.8-9.4,6.3l-0.1,0c-0.5,0-0.5,0-1.9-2.7c-2.4-5.3-2-11.5,1-16.9
	c2-3.7,5.2-6.1,8.3-8.5c1.8-1.4,3.7-2.8,5.3-4.5l0.1-0.1c3.5-3.6,6.2-6.4,8.9-10.9l0.6-0.9l0.7,0.8c8.2,10.1,12,18.7,11.3,26.6
	c-0.7,8.7-5.5,15.8-13.7,20c-4.7,2.3-7.9,3-13.2,2.9L17.9,63.8z M16.3,58.5l2,3.1l9.8-6.9l0.2,0c5.2,0.1,8.2-0.5,12.7-2.7
	c7.7-4,12.2-10.5,12.8-18.8c0.6-7.2-2.8-15.3-10.4-24.7c-2.6,4.1-5.4,6.9-8.6,10.2l-0.1,0.1c-1.7,1.8-3.6,3.2-5.5,4.7
	c-3.1,2.3-6,4.6-7.9,8c-2.8,5-3.1,10.7-1,15.5c0.3,0.6,0.7,1.3,0.9,1.7c1.8-0.7,5-3,8.2-5.8c4.7-4.3,8.9-10,11.4-15.6
	c0.7-1.4,2.3-4.9,2.3-4.9l1.5-3.3l-0.1,3.6c0,0.2-0.1,3.8-0.7,6c-1.7,6.3-5.5,12.3-11.2,17.7C28.2,51.2,23.3,54.6,16.3,58.5z"/>
</svg>
