<?xml version="1.0" encoding="utf-8"?>
<!-- Generator: Adobe Illustrator 18.1.1, SVG Export Plug-In . SVG Version: 6.00 Build 0)  -->
<svg version="1.1" id="Layer_1" xmlns="http://www.w3.org/2000/svg" xmlns:xlink="http://www.w3.org/1999/xlink" x="0px" y="0px"
	 viewBox="0 0 75 75" enable-background="new 0 0 75 75" xml:space="preserve">
<g>
	<path fill="none" stroke="#1288C9" stroke-width="1.5" stroke-miterlimit="10" d="M51.3,64.1h-5.2V62c0-0.9-0.7-1.6-1.6-1.6h-4.1
		V21.6h-6.8v38.8h-4.1c-0.9,0-1.6,0.7-1.6,1.6v2.1h-5.2c-0.4,0-0.7,0.3-0.7,0.7v4.9c0,0.4,0.3,0.7,0.7,0.7h28.6
		c0.4,0,0.7-0.3,0.7-0.7v-4.9C52,64.5,51.7,64.1,51.3,64.1z"/>
	<path fill="none" stroke="#1288C9" stroke-width="1.5" stroke-miterlimit="10" d="M15.4,21.6h43.3c1.1,0,2-0.7,2.2-1.8
		c0.2-1.1-0.4-2.1-1.4-2.5c-0.1,0-0.1,0-0.2,0l-18.8-1.2V6.7c0-1.9-1.5-3.4-3.4-3.4c-1.9,0-3.4,1.5-3.4,3.4v9.4l-18.8,1.2
		c-0.1,0-0.1,0-0.2,0c-1,0.4-1.6,1.4-1.4,2.5C13.4,20.9,14.2,21.6,15.4,21.6z"/>
	<g>
		<path fill="#1288C9" d="M15.8,22.8c0.2,0,0.5,0.1,0.6,0.3L29,43.7c0.1,0.1,0.1,0.3,0.1,0.4c-0.6,7-6.3,12.2-13.3,12.2
			c-7,0-12.7-5.2-13.3-12.2c0-0.1,0-0.3,0.1-0.4l12.6-20.6C15.3,22.9,15.5,22.8,15.8,22.8 M4.4,43.4h22.8L15.8,24.8L4.4,43.4
			 M15.8,21.3c-0.8,0-1.5,0.4-1.9,1L1.3,42.9C1,43.3,0.9,43.8,1,44.3C1.6,52,8,57.8,15.8,57.8c7.8,0,14.1-5.8,14.8-13.6
			c0-0.5-0.1-1-0.3-1.3L17.6,22.3C17.2,21.7,16.5,21.3,15.8,21.3L15.8,21.3z M7,41.9l8.7-14.3l8.7,14.3H7L7,41.9z"/>
	</g>
	<g>
		<path fill="#1288C9" d="M58.2,22.8c0.2,0,0.5,0.1,0.6,0.3l12.6,20.6c0.1,0.1,0.1,0.3,0.1,0.4c-0.6,7-6.3,12.2-13.3,12.2
			c-7,0-12.7-5.2-13.3-12.2c0-0.1,0-0.3,0.1-0.4l12.6-20.6C57.8,22.9,58,22.8,58.2,22.8 M46.8,43.4h22.8L58.2,24.8L46.8,43.4
			 M58.2,21.3c-0.8,0-1.5,0.4-1.9,1L43.7,42.9c-0.2,0.4-0.4,0.9-0.3,1.3c0.7,7.7,7,13.6,14.8,13.6S72.4,52,73,44.3
			c0-0.5-0.1-0.9-0.3-1.3L60.1,22.3C59.7,21.6,59,21.3,58.2,21.3L58.2,21.3z M49.5,41.9l8.7-14.3L67,41.9H49.5L49.5,41.9z"/>
	</g>
</g>
</svg>
