<?xml version="1.0" encoding="utf-8"?>
<!-- Generator: Adobe Illustrator 17.1.0, SVG Export Plug-In . SVG Version: 6.00 Build 0)  -->
<!DOCTYPE svg PUBLIC "-//W3C//DTD SVG 1.1//EN" "http://www.w3.org/Graphics/SVG/1.1/DTD/svg11.dtd">
<svg version="1.1" id="coins" xmlns="http://www.w3.org/2000/svg" xmlns:xlink="http://www.w3.org/1999/xlink" x="0px" y="0px"
	 viewBox="0 0 140 140" enable-background="new 0 0 140 140" xml:space="preserve">
<circle fill="none" stroke="#FFFFFF" stroke-width="3" stroke-miterlimit="10" cx="93" cy="76" r="23.3"/>
<ellipse fill="none" stroke="#FFFFFF" stroke-width="3" stroke-miterlimit="10" cx="56.3" cy="40.2" rx="22.5" ry="9.5"/>
<line fill="none" stroke="#FFFFFF" stroke-width="3" stroke-miterlimit="10" x1="33.8" y1="40.2" x2="33.8" y2="55.3"/>
<line fill="none" stroke="#FFFFFF" stroke-width="3" stroke-miterlimit="10" x1="78.8" y1="40.2" x2="78.8" y2="55.3"/>
<path fill="none" stroke="#FFFFFF" stroke-width="3" stroke-miterlimit="10" d="M78.8,55.1c0,5.3-10.1,9.5-22.5,9.5
	s-22.5-4.3-22.5-9.5"/>
<path fill="none" stroke="#FFFFFF" stroke-width="3" stroke-miterlimit="10" d="M69.7,75c-1.8,0.2-3.7,0.3-5.7,0.3
	c-12.4,0-22.5-4.3-22.5-9.5"/>
<path fill="none" stroke="#FFFFFF" stroke-width="3" stroke-miterlimit="10" d="M81,96c-4.1,2-10.2,3.3-17,3.3
	c-12.4,0-22.5-4.3-22.5-9.5V62.3"/>
<path fill="none" stroke="#FFFFFF" stroke-width="3" stroke-miterlimit="10" d="M72.9,87.8c-2.7,0.5-5.7,0.8-8.9,0.8
	c-12.4,0-22.5-4.3-22.5-9.5"/>
<g>
	<path fill="#FFFFFF" d="M97.8,82.9c0-1.1-0.4-2-1.1-2.7s-2-1.4-3.7-2c-2.4-0.7-4.2-1.7-5.4-2.9s-1.8-2.8-1.8-4.8
		c0-2,0.6-3.5,1.7-4.8c1.1-1.2,2.7-2,4.6-2.2v-3.9h2.8v3.9c2,0.3,3.5,1.1,4.6,2.5c1.1,1.4,1.6,3.3,1.6,5.7h-3.5
		c0-1.6-0.4-2.9-1.1-3.9c-0.7-1-1.8-1.5-3.1-1.5c-1.4,0-2.4,0.4-3.1,1.1c-0.7,0.7-1,1.7-1,3c0,1.1,0.4,2.1,1.1,2.8s2,1.4,3.9,2
		c2.4,0.8,4.2,1.8,5.4,2.9c1.2,1.2,1.8,2.7,1.8,4.7c0,2-0.6,3.7-1.8,4.9c-1.2,1.2-2.9,1.9-5,2.1v3.4h-2.8v-3.4c-2-0.2-3.7-1-5-2.2
		c-1.3-1.3-1.9-3.1-1.9-5.6l0-0.1h3.4c0,1.8,0.5,3.1,1.4,3.9s2,1.2,3.4,1.2c1.5,0,2.7-0.4,3.6-1.1C97.3,85.2,97.8,84.2,97.8,82.9z"
		/>
</g>
</svg>
