<?xml version="1.0" encoding="utf-8"?>
<!-- Generator: Adobe Illustrator 18.1.1, SVG Export Plug-In . SVG Version: 6.00 Build 0)  -->
<svg version="1.1" id="Layer_1" xmlns="http://www.w3.org/2000/svg" xmlns:xlink="http://www.w3.org/1999/xlink" x="0px" y="0px"
	 viewBox="0 0 70 70" enable-background="new 0 0 70 70" xml:space="preserve">
<path fill="#1279BF" d="M57.2,56.2H53c-2.4,0-4.1-3.2-4.1-5.4v-0.4H19.7v0.4c0,2.2-1.7,5.4-4.1,5.4h-4.2c-2.1,0-3.6-1.8-3.6-4.3
	v-0.5c-0.2-0.1-0.4-0.2-0.6-0.4c-0.3-0.3-0.5-0.8-0.5-1.2c0-0.1-0.1-0.3,0-0.5l0-6l0-2.7l0,0c0-0.9,0-3,0.2-3.8
	c0.2-1.5,1.2-2.6,2.5-4.1L9.9,32c0.4-0.4,0.8-0.8,1.1-1.1c-1.6-0.5-2.8-1.6-3-3c-0.2-0.8,0.1-1.6,0.6-2.2c0.7-0.9,2-1.4,3.5-1.5
	c0,0,0,0,0,0c1,0,1.9,0.2,2.8,0.6c0.2-0.6,0.4-1.3,0.6-2.1c0.9-2.8,2.5-5.1,3.7-6.3c1.3-1.3,10-1.8,15.5-1.8
	c6.4,0,14.3,0.3,15.6,1.5c0.9,0.9,2.7,3.5,3.7,6.6c0.2,0.7,0.4,1.4,0.6,2.1c0.8-0.4,1.8-0.6,2.7-0.6l0.1,0c1.5,0,2.7,0.6,3.5,1.5
	c0.5,0.6,0.7,1.4,0.6,2.2c-0.2,1.3-1.4,2.4-2.9,2.9c0.4,0.3,0.8,0.7,1.2,1.2c1.3,1.8,1.9,3.2,2.1,4.7c0.1,0.5,0.1,1.8,0.1,3.3l0,0.8
	c0,0.7,0,1.1,0,1.1l-0.1,7.7c0,0.5-0.2,0.9-0.5,1.3c-0.2,0.2-0.4,0.3-0.6,0.4v0.5C60.8,54.4,59.3,56.2,57.2,56.2z M18.2,48.9h32.2
	v1.9c0,1.6,1.3,3.9,2.6,3.9h4.2c1.5,0,2.1-1.4,2.1-2.8V50h0.8c0.1,0,0.2-0.1,0.2-0.1c0,0,0.1-0.1,0.1-0.2l0.1-7.7l0,0
	c0,0,0-0.5,0-1.1l0-0.9c0-1,0-2.6-0.1-3c-0.1-0.9-0.5-2.1-1.9-4.1c-1.1-1.6-3-1.7-3-1.7l-0.6,0l-0.4-1.7l1.1,0.1
	c0.3,0.1,0.5,0.1,0.7,0.1c0,0,0,0,0,0c1.8,0,3.4-1,3.6-2.1c0.1-0.4,0-0.7-0.3-1c-0.5-0.6-1.3-0.9-2.3-0.9c0,0,0,0,0,0
	c-1.1,0-2,0.3-2.8,0.9l-0.9,0.7l-0.3-1c-0.3-0.9-0.6-1.9-0.9-3c-0.9-2.7-2.5-5.1-3.3-6c-0.5-0.4-4.9-1.1-14.5-1.1
	c-7.9,0-13.8,0.8-14.5,1.4c-0.2,0.2-2.2,2.3-3.3,5.7c-0.3,1.1-0.6,2.1-0.9,3l-0.3,1l-0.9-0.6c-0.7-0.5-1.7-0.8-2.7-0.8
	c-1.1,0-1.9,0.4-2.4,0.9c-0.2,0.3-0.3,0.6-0.3,1c0.2,1.1,1.8,2.1,3.5,2.1c0.3,0,0.5,0,0.8-0.1l1.3-0.2l-0.6,1.7L14,31.2
	c0,0-1.5,0.1-2.9,1.7l-0.6,0.7C9.3,35,8.5,35.9,8.3,37c-0.1,0.8-0.2,2.9-0.2,3.9c0,0.6,0,1.1,0,1.1l0.1,1.5l-0.1,0l0,5.9l0,0.4
	c0,0.1,0,0.2,0.1,0.2c0,0,0.1,0.1,0.2,0.1h0.8v1.9c0,1.3,0.7,2.8,2.1,2.8h4.2c1.3,0,2.6-2.3,2.6-3.9V48.9z M53.5,40.8
	c-2.5,0-4.6-2.1-4.6-4.6c0-2.5,2.1-4.6,4.6-4.6c2.5,0,4.6,2.1,4.6,4.6C58.1,38.7,56.1,40.8,53.5,40.8z M53.5,33.1
	c-1.7,0-3.1,1.4-3.1,3.1c0,1.7,1.4,3.1,3.1,3.1c1.7,0,3.1-1.4,3.1-3.1C56.6,34.5,55.2,33.1,53.5,33.1z M17,40.8
	c-2.5,0-4.6-2.1-4.6-4.6c0-2.5,2.1-4.6,4.6-4.6c2.5,0,4.6,2.1,4.6,4.6C21.6,38.7,19.5,40.8,17,40.8z M17,33.1
	c-1.7,0-3.1,1.4-3.1,3.1c0,1.7,1.4,3.1,3.1,3.1c1.7,0,3.1-1.4,3.1-3.1C20.1,34.5,18.7,33.1,17,33.1z M50.4,27.3H18l0.2-0.9
	c0.6-2.5,2.3-8.3,4.6-8.3h23.1c2.6,0,4.6,6.5,4.6,8.4V27.3z M19.9,25.8h29c-0.4-2.3-2-6.2-3-6.2H22.8C22.1,19.7,20.8,22.6,19.9,25.8
	z"/>
</svg>
