<?xml version="1.0" encoding="utf-8"?>
<!-- Generator: Adobe Illustrator 17.1.0, SVG Export Plug-In . SVG Version: 6.00 Build 0)  -->
<!DOCTYPE svg PUBLIC "-//W3C//DTD SVG 1.1//EN" "http://www.w3.org/Graphics/SVG/1.1/DTD/svg11.dtd">
<svg version="1.1" id="Layer_1" xmlns="http://www.w3.org/2000/svg" xmlns:xlink="http://www.w3.org/1999/xlink" x="0px" y="0px"
	 width="90px" height="90px" viewBox="0 0 90 90" enable-background="new 0 0 90 90" xml:space="preserve">
<g>
	<polyline fill="none" stroke="#5D9741" stroke-width="3" stroke-miterlimit="10" points="24.2,36.6 7.5,36.6 7.5,19.5 83.5,19.5 
		83.5,36.6 53.7,36.6 	"/>
	<polyline fill="none" stroke="#5D9741" stroke-width="3" stroke-miterlimit="10" points="54,53.5 83.5,53.5 83.5,70.6 7.5,70.6 
		7.5,53.5 23.7,53.5 	"/>
	<path fill="none" stroke="#5D9741" stroke-width="3" stroke-miterlimit="10" d="M46.8,48.1c-1.3,3-4.3,5.2-7.8,5.2
		c-4.6,0-8.4-3.8-8.4-8.4s3.8-8.4,8.4-8.4c3.4,0,6.4,2.1,7.7,5l8.3-3.2c-2.6-6.3-8.8-10.7-16-10.7c-9.6,0-17.3,7.7-17.3,17.3
		s7.7,17.3,17.3,17.3c7.1,0,13.3-4.3,15.9-10.5L46.8,48.1z"/>
	<circle fill="none" stroke="#5D9741" stroke-width="3" stroke-miterlimit="10" cx="39.1" cy="44.8" r="8.4"/>
	<line fill="none" stroke="#5D9741" stroke-width="3" stroke-miterlimit="10" x1="7.5" y1="54.8" x2="7.5" y2="19.5"/>
	<line fill="none" stroke="#5D9741" stroke-width="3" stroke-miterlimit="10" x1="83.5" y1="19.5" x2="83.5" y2="54.8"/>
</g>
</svg>
