<?xml version="1.0" encoding="utf-8"?>
<!-- Generator: Adobe Illustrator 17.1.0, SVG Export Plug-In . SVG Version: 6.00 Build 0)  -->
<!DOCTYPE svg PUBLIC "-//W3C//DTD SVG 1.1//EN" "http://www.w3.org/Graphics/SVG/1.1/DTD/svg11.dtd">
<svg version="1.1" id="Layer_1" xmlns="http://www.w3.org/2000/svg" xmlns:xlink="http://www.w3.org/1999/xlink" x="0px" y="0px"
	 viewBox="0 0 110 110" enable-background="new 0 0 110 110" xml:space="preserve">
<g>
	<path fill="#1279BF" d="M54.2,33.8c-13.3,0-24.2,10.8-24.2,24.2c0,13.3,10.8,24.2,24.2,24.2c13.3,0,24.2-10.8,24.2-24.2
		C78.4,44.6,67.5,33.8,54.2,33.8L54.2,33.8z M54.2,80.1c-12.2,0-22.1-9.9-22.1-22.1c0-12.2,9.9-22.1,22.1-22.1
		c12.2,0,22.1,9.9,22.1,22.1C76.4,70.1,66.4,80.1,54.2,80.1L54.2,80.1z M54.2,80.1"/>
	<path fill="#1279BF" d="M52.1,48.5c0.4,0,0.8-0.5,0.8-1v-2.6c0-0.6,0.3-0.7,0.6-0.2l2.3,3c0.3,0.4,0.9,0.8,1.3,0.8
		c0.4,0,0.7-0.5,0.7-1v-5.3c0-0.6-0.4-1-0.8-1c-0.4,0-0.8,0.5-0.8,1v2.5c0,0.6-0.3,0.6-0.6,0.2L53.4,42c-0.3-0.4-0.9-0.8-1.4-0.8
		c-0.4,0-0.7,0.5-0.7,1v5.3C51.3,48.1,51.7,48.5,52.1,48.5L52.1,48.5z M52.1,48.5"/>
	<path fill="#1279BF" d="M55.1,69.5c-1.3-0.3-1.6-0.5-1.6-1c0-0.4,0.3-0.6,0.9-0.6c0.3,0,0.7,0.1,1,0.2c0.5,0.2,1.1,0.2,1.3-0.1
		c0.2-0.3,0.1-0.9-0.4-1.1c-0.6-0.3-1.2-0.4-1.9-0.4c-1.5,0-2.6,0.9-2.6,2.2c0,1.5,1,1.9,2.4,2.2c1.2,0.3,1.5,0.5,1.5,1
		c0,0.4-0.4,0.7-1.1,0.7c-0.5,0-0.9-0.1-1.3-0.3c-0.5-0.2-1.1-0.3-1.3,0c-0.3,0.3-0.1,0.9,0.3,1.2c0.7,0.4,1.5,0.6,2.3,0.6
		c1.6,0,2.7-0.8,2.7-2.3C57.4,70.4,56.6,69.9,55.1,69.5L55.1,69.5z M55.1,69.5"/>
	<path fill="#1279BF" d="M44.6,61.4c0.4,0,0.8-0.4,1-1l1.8-5.5c0.2-0.5-0.1-1-0.5-1c-0.5,0-1,0.4-1.1,1l-0.9,3
		c-0.2,0.5-0.4,0.5-0.6,0l-1-3.1c-0.2-0.5-0.6-1-1-1c-0.4,0-0.8,0.4-1,1l-1,3.1c-0.2,0.5-0.5,0.5-0.6,0l-0.9-3c-0.2-0.5-0.7-1-1.2-1
		c-0.5,0-0.7,0.4-0.5,1l1.8,5.5c0.2,0.5,0.6,1,1,1c0.4,0,0.8-0.4,1-1l1-2.9c0.2-0.5,0.5-0.5,0.7,0l1,2.9
		C43.8,61,44.2,61.4,44.6,61.4L44.6,61.4z M44.6,61.4"/>
	<path fill="#1279BF" d="M69.2,59.9h-1.9c-0.6,0-1-0.3-1-0.8c0-0.4,0.5-0.8,1-0.8h1.4c0.6,0,1-0.3,1-0.7c0-0.4-0.5-0.7-1-0.7h-1.4
		c-0.6,0-1-0.3-1-0.7c0-0.4,0.5-0.7,1-0.7h1.9c0.6,0,1-0.3,1-0.7c0-0.4-0.5-0.7-1-0.7h-3.5c-0.6,0-1,0.5-1,1v5.3c0,0.6,0.5,1,1,1
		h3.5c0.6,0,1-0.3,1-0.7C70.2,60.2,69.8,59.9,69.2,59.9L69.2,59.9z M69.2,59.9"/>
	<path fill="#1279BF" d="M66.2,48.1c0.1-0.2,0.5-0.7,0.2-1.1c-0.4-0.4-0.9-0.1-1.1,0l-8.2,5c-0.5,0.3-1.2,0.4-1.7,0.3
		c-0.3-0.1-0.6-0.1-0.9-0.1c-2.9,0-5.2,2.3-5.2,5.2c0,0.3,0,0.6,0.1,0.9c0.1,0.5,0,1.2-0.4,1.7l-5.1,6.6c-0.1,0.2-0.5,0.7-0.2,1.1
		c0.1,0.1,0.3,0.2,0.4,0.2c0.3,0,0.5-0.2,0.7-0.2l7.6-4.6c0.5-0.3,1.1-0.5,1.5-0.4c0.2,0,0.4,0,0.6,0c2.9,0,5.2-2.3,5.2-5.2
		c0-0.2,0-0.3,0-0.4c0-0.2,0.2-0.8,0.6-1.2L66.2,48.1z M51.8,62.2l-0.2,0.1l-5,3.1c-0.5,0.3-0.6,0.2-0.2-0.3l3.5-4.5
		c0,0,0.1-0.1,0.1-0.2c0.1-0.1,0.2-0.1,0.3,0c0,0.1,0.1,0.1,0.1,0.2c0.4,0.5,0.8,0.9,1.3,1.2c0.1,0,0.1,0.1,0.2,0.1
		C52,62,52,62.1,51.8,62.2L51.8,62.2z M54.5,61.7c-2.3,0-4.2-1.9-4.2-4.2c0-2.3,1.9-4.2,4.2-4.2c2.3,0,4.2,1.9,4.2,4.2
		C58.7,59.8,56.8,61.7,54.5,61.7L54.5,61.7z M59.5,55.1c0,0-0.1,0.1-0.1,0.2c-0.1,0.1-0.1,0.1-0.2,0c0,0,0-0.1-0.1-0.1
		c-0.4-0.7-0.9-1.3-1.6-1.8c0,0-0.1-0.1-0.1-0.1c-0.1,0-0.1-0.1,0-0.2l0.2-0.1l5.9-3.6c0.5-0.3,0.6-0.2,0.2,0.3L59.5,55.1z
		 M59.5,55.1"/>
	<path fill="#1279BF" d="M59.7,27.4C59.7,27.4,59.7,27.4,59.7,27.4c0.4-0.4,0.7-1,0.7-1.6v-1.5c0-1.3-1-2.3-2.3-2.3h-6.7
		c-1.3,0-2.3,1-2.3,2.3v1.5c0,0.6,0.2,1.1,0.6,1.5c-14.9,2.2-26.3,15.1-26.3,30.6c0,17.1,13.9,31,31,31c17.1,0,31-13.9,31-31
		C85.2,42.7,74.2,30,59.7,27.4L59.7,27.4z M51.3,24.3l6.8,0.1l0,1.5c0,0,0,0,0,0l-6.8-0.1L51.3,24.3z M54.2,86.7
		c-15.8,0-28.7-12.9-28.7-28.7c0-15.8,12.9-28.7,28.7-28.7C70.1,29.2,83,42.1,83,57.9C83,73.8,70.1,86.7,54.2,86.7L54.2,86.7z
		 M54.2,86.7"/>
</g>
</svg>
