<?xml version="1.0" encoding="utf-8"?>
<!-- Generator: Adobe Illustrator 18.1.1, SVG Export Plug-In . SVG Version: 6.00 Build 0)  -->
<svg version="1.1" id="Layer_1" xmlns="http://www.w3.org/2000/svg" xmlns:xlink="http://www.w3.org/1999/xlink" x="0px" y="0px"
	 viewBox="0 0 90 90" enable-background="new 0 0 90 90" xml:space="preserve">
<path fill="none" stroke="#5D9741" stroke-width="3" stroke-miterlimit="10" d="M81.2,64.4h-73L3,74.8C3,77.7,5.3,80,8.2,80h73
	c2.9,0,5.2-2.3,5.2-5.2L81.2,64.4z"/>
<polygon fill="#5D9741" points="52.5,77.4 36.9,77.4 34.3,74.8 55.1,74.8 "/>
<path fill="none" stroke="#5D9741" stroke-width="3" stroke-miterlimit="10" d="M13.4,17.4H76v41.7h5.2V17.4c0-2.9-2.3-5.2-5.2-5.2
	H13.4c-2.9,0-5.2,2.3-5.2,5.2v41.7h5.2V17.4z"/>
<polygon fill="#5C9942" points="44.7,44.9 37.6,37.8 41.6,33.8 23.9,27.9 29.8,45.6 33.8,41.6 40.9,48.7 "/>
</svg>
