<?xml version="1.0" encoding="utf-8"?>
<!-- Generator: Adobe Illustrator 18.1.1, SVG Export Plug-In . SVG Version: 6.00 Build 0)  -->
<svg version="1.1" id="Layer_1" xmlns="http://www.w3.org/2000/svg" xmlns:xlink="http://www.w3.org/1999/xlink" x="0px" y="0px"
	 viewBox="0 0 70 70" enable-background="new 0 0 70 70" xml:space="preserve">
<g>
	<rect x="36" y="30.8" fill="#1279BF" width="4" height="4"/>
	<rect x="42" y="30.8" fill="#1279BF" width="4" height="4"/>
	<rect x="48" y="30.8" fill="#1279BF" width="4" height="4"/>
	<rect x="36" y="38.8" fill="#1279BF" width="4" height="4"/>
	<rect x="42" y="38.8" fill="#1279BF" width="4" height="4"/>
	<rect x="48" y="38.8" fill="#1279BF" width="4" height="4"/>
	<rect x="36" y="46.8" fill="#1279BF" width="4" height="4"/>
	<rect x="42" y="46.8" fill="#1279BF" width="4" height="4"/>
	<rect x="48" y="46.8" fill="#1279BF" width="4" height="4"/>
	<path fill="#1279BF" d="M62.8,63.6H9.2v-3.5h2V14h21.5v48.1h22.5V27.4h-20v-5.3h25.5v37.9h2V63.6z M56.8,62.1h4.5v-0.5h-2V23.7
		H36.8v2.3h20V62.1z M10.7,62.1h20.5V15.5H12.7v46.1h-2V62.1z"/>
	<rect x="36" y="54.6" fill="#1279BF" width="4" height="7.4"/>
	<rect x="42" y="54.6" fill="#1279BF" width="4" height="7.4"/>
	<rect x="48" y="54.6" fill="#1279BF" width="4" height="7.4"/>
	<rect x="16" y="19.9" fill="#1279BF" width="12" height="2"/>
	<rect x="16" y="26.8" fill="#1279BF" width="12" height="2"/>
	<rect x="16" y="33.7" fill="#1279BF" width="12" height="2"/>
	<rect x="16" y="40.8" fill="#1279BF" width="12" height="2"/>
	<rect x="16" y="48.6" fill="#1279BF" width="12" height="2"/>
	<rect x="20" y="54.6" fill="#1279BF" width="4" height="7.4"/>
	<path fill="#1279BF" d="M48.6,21.6h-5.3V11.4H25.2V6.2h23.4V21.6z M44.9,20.1h2.3V7.7H26.7v2.3h18.2V20.1z"/>
</g>
</svg>
