<?xml version="1.0" encoding="utf-8"?>
<!-- Generator: Adobe Illustrator 18.1.1, SVG Export Plug-In . SVG Version: 6.00 Build 0)  -->
<svg version="1.1" id="Layer_1" xmlns="http://www.w3.org/2000/svg" xmlns:xlink="http://www.w3.org/1999/xlink" x="0px" y="0px"
	 viewBox="0 0 70 70" enable-background="new 0 0 70 70" xml:space="preserve">
<g>
	<path fill="#1279BF" d="M35,59.1c-13.3,0-24.1-10.8-24.1-24.1S21.7,10.9,35,10.9c4.3,0,8.5,1.1,12.1,3.3c0.9-0.5,1.9-0.8,2.9-0.8
		c3.2,0,5.8,2.6,5.8,5.8c0,1-0.2,1.9-0.7,2.7c2.5,3.9,3.9,8.4,3.9,13.1C59.1,48.3,48.3,59.1,35,59.1z M35,12.4
		c-12.4,0-22.6,10.1-22.6,22.6S22.6,57.6,35,57.6c12.4,0,22.6-10.1,22.6-22.6c0-4.5-1.3-8.9-3.9-12.6L53.4,22l0.3-0.4
		c0.4-0.7,0.7-1.5,0.7-2.3c0-2.4-1.9-4.3-4.3-4.3c-0.9,0-1.7,0.3-2.5,0.8L47.2,16l-0.4-0.3C43.2,13.6,39.2,12.4,35,12.4z"/>
	<path fill="#1279BF" d="M35,56.6c-11.9,0-21.6-9.7-21.6-21.6c0-11.9,9.7-21.6,21.6-21.6c3.8,0,7.6,1,10.9,2.9l0.6,0.4l-0.3,0.6
		c-0.3,0.6-0.4,1.2-0.4,1.9c0,2.4,1.9,4.3,4.3,4.3c0.7,0,1.4-0.2,2.1-0.5l0.6-0.3l0.4,0.6c2.3,3.5,3.5,7.5,3.5,11.7
		C56.6,46.9,46.9,56.6,35,56.6z M35,14.9c-11.1,0-20.1,9-20.1,20.1c0,11.1,9,20.1,20.1,20.1s20.1-9,20.1-20.1c0-3.7-1-7.2-2.9-10.4
		c-0.7,0.3-1.4,0.4-2.1,0.4c-3.2,0-5.8-2.6-5.8-5.8c0-0.6,0.1-1.3,0.3-1.9C41.6,15.8,38.3,14.9,35,14.9z"/>
</g>
<path fill="#1279BF" d="M35,48.2c-7.3,0-13.2-5.9-13.2-13.2c0-7.3,5.9-13.1,13.2-13.1c7.3,0,13.2,5.9,13.2,13.1
	C48.2,42.3,42.3,48.2,35,48.2z M35,23.3c-6.4,0-11.7,5.2-11.7,11.6c0,6.4,5.2,11.7,11.7,11.7c6.4,0,11.7-5.2,11.7-11.7
	C46.7,28.6,41.4,23.3,35,23.3z"/>
<polygon fill="#1279BF" points="39.3,41.1 36.1,41.1 36.1,35.7 34,35.7 34,41.1 30.7,41.1 30.7,28.9 34,28.9 34,32.5 36.1,32.5 
	36.1,28.9 39.3,28.9 "/>
</svg>
