<?xml version="1.0" encoding="utf-8"?>
<!-- Generator: Adobe Illustrator 18.1.0, SVG Export Plug-In . SVG Version: 6.00 Build 0)  -->
<svg version="1.1" id="Layer_1" xmlns="http://www.w3.org/2000/svg" xmlns:xlink="http://www.w3.org/1999/xlink" x="0px" y="0px"
	 viewBox="0 0 120 120" enable-background="new 0 0 120 120" xml:space="preserve">
<g>
	<path fill="none" stroke="#1279BF" stroke-width="3" stroke-miterlimit="10" d="M58.8,94.3c-1.1,0-2.2-0.5-3-1.3L44.5,81.7
		c-3.9,2.7-8.5,4.1-13.2,4.1c-12.9,0-23.4-10.5-23.4-23.4s10.5-23.4,23.4-23.4s23.4,10.5,23.4,23.4c0,4.7-1.4,9.4-4.1,13.2
		l11.4,11.4c0.8,0.8,1.2,1.9,1.2,3C63.1,92.4,61.2,94.3,58.8,94.3z M31.2,47.6c-8.2,0-14.9,6.7-14.9,14.9S23,77.3,31.2,77.3
		s14.9-6.7,14.9-14.9S39.4,47.6,31.2,47.6z"/>
</g>
<path fill="none" stroke="#1279BF" stroke-width="3" stroke-miterlimit="10" d="M31.2,31.4V19.5c0-3.4,2.8-6.1,6.1-6.1h37.6
	c3.4,0,7.3,0,8.7,0s4.5,2,6.9,4.3l16.9,17c2.4,2.4,4.3,7.1,4.3,10.5v55.4c0,3.4-2.8,6.1-6.1,6.1H37.3c-3.4,0-6.1-2.8-6.1-6.1v-7.1"
	/>
<path fill="none" stroke="#1279BF" stroke-width="3" stroke-miterlimit="10" d="M111.7,41.9h-23c-3.4,0-6.1-2.8-6.1-6.1V13.4"/>
</svg>
