<?xml version="1.0" encoding="utf-8"?>
<!-- Generator: Adobe Illustrator 17.1.0, SVG Export Plug-In . SVG Version: 6.00 Build 0)  -->
<!DOCTYPE svg PUBLIC "-//W3C//DTD SVG 1.1//EN" "http://www.w3.org/Graphics/SVG/1.1/DTD/svg11.dtd" [
	<!ENTITY ns_extend "http://ns.adobe.com/Extensibility/1.0/">
	<!ENTITY ns_ai "http://ns.adobe.com/AdobeIllustrator/10.0/">
	<!ENTITY ns_graphs "http://ns.adobe.com/Graphs/1.0/">
	<!ENTITY ns_vars "http://ns.adobe.com/Variables/1.0/">
	<!ENTITY ns_imrep "http://ns.adobe.com/ImageReplacement/1.0/">
	<!ENTITY ns_sfw "http://ns.adobe.com/SaveForWeb/1.0/">
	<!ENTITY ns_custom "http://ns.adobe.com/GenericCustomNamespace/1.0/">
	<!ENTITY ns_adobe_xpath "http://ns.adobe.com/XPath/1.0/">
]>
<svg version="1.1" id="Layer_1" xmlns:x="&ns_extend;" xmlns:i="&ns_ai;" xmlns:graph="&ns_graphs;"
	 xmlns="http://www.w3.org/2000/svg" xmlns:xlink="http://www.w3.org/1999/xlink" x="0px" y="0px" viewBox="0 0 90 90"
	 enable-background="new 0 0 90 90" xml:space="preserve">

	
		<i:pgfRef  xlink:href="#adobe_illustrator_pgf">
		</i:pgfRef>
	
	<circle fill="#5C9942" cx="45" cy="45" r="36.7"/>
<g>
	<path fill="#FFFFFF" d="M29,53.7H16.6v-1.8l6.3-7c1.1-1.3,1.9-2.3,2.3-3c0.4-0.7,0.6-1.5,0.6-2.3c0-1-0.3-1.8-0.8-2.4
		c-0.6-0.7-1.3-1-2.2-1c-1.3,0-2.3,0.3-2.9,1c-0.6,0.7-0.9,1.6-0.9,2.9h-2.5l0-0.1c0-1.7,0.5-3,1.6-4.2c1.1-1.1,2.7-1.7,4.7-1.7
		c1.7,0,3.1,0.5,4.1,1.5c1,1,1.5,2.3,1.5,3.8c0,1-0.3,2.1-0.9,3.1c-0.6,1.1-1.5,2.2-2.6,3.4l-5,5.5l0,0.1H29V53.7z"/>
	<path fill="#FFFFFF" d="M42.8,46.4c0,2.5-0.5,4.3-1.6,5.6c-1.1,1.3-2.6,2-4.5,2s-3.4-0.7-4.5-2c-1.1-1.3-1.6-3.2-1.6-5.6v-4.5
		c0-2.4,0.5-4.3,1.6-5.6c1.1-1.3,2.6-2,4.5-2c1.9,0,3.4,0.7,4.5,2c1.1,1.3,1.6,3.2,1.6,5.6V46.4z M40.2,41.3c0-1.7-0.3-2.9-0.9-3.7
		c-0.6-0.8-1.5-1.3-2.6-1.3s-2,0.4-2.6,1.3s-0.9,2.1-0.9,3.7v5.6c0,1.7,0.3,2.9,0.9,3.8c0.6,0.8,1.5,1.3,2.6,1.3s2-0.4,2.6-1.3
		c0.6-0.8,0.9-2.1,0.9-3.8V41.3z"/>
	<path fill="#FFFFFF" d="M58,46.4c0,2.5-0.5,4.3-1.6,5.6c-1.1,1.3-2.6,2-4.5,2s-3.4-0.7-4.5-2s-1.6-3.2-1.6-5.6v-4.5
		c0-2.4,0.5-4.3,1.6-5.6c1.1-1.3,2.6-2,4.5-2c1.9,0,3.4,0.7,4.5,2c1.1,1.3,1.6,3.2,1.6,5.6V46.4z M55.4,41.3c0-1.7-0.3-2.9-0.9-3.7
		c-0.6-0.8-1.5-1.3-2.6-1.3s-2,0.4-2.6,1.3s-0.9,2.1-0.9,3.7v5.6c0,1.7,0.3,2.9,0.9,3.8c0.6,0.8,1.5,1.3,2.6,1.3s2-0.4,2.6-1.3
		c0.6-0.8,0.9-2.1,0.9-3.8V41.3z"/>
	<path fill="#FFFFFF" d="M68.5,43.4h5.3v2.3h-5.3v6.1h-2.6v-6.1h-5.3v-2.3h5.3v-5.6h2.6V43.4z"/>
</g>


</svg>
