<?xml version="1.0" encoding="utf-8"?>
<!-- Generator: Adobe Illustrator 18.1.1, SVG Export Plug-In . SVG Version: 6.00 Build 0)  -->
<svg version="1.1" id="Layer_1" xmlns="http://www.w3.org/2000/svg" xmlns:xlink="http://www.w3.org/1999/xlink" x="0px" y="0px"
	 viewBox="0 0 70 70" enable-background="new 0 0 70 70" xml:space="preserve">
<g>
	<g>
		<path fill="#1279BF" d="M52,12.3c0.2,0,0.4,0.1,0.5,0.1c-0.2,1.2-0.2,2.2-0.1,3.1l0.1,0.8l0.7,0.3c0.8,0.4,1.5,0.9,2.1,1.5
			l0.5,0.5l0.8-0.1c0.9-0.1,1.8-0.5,2.8-1.1c0.1,0.1,0.2,0.3,0.3,0.5c-1,0.7-1.7,1.4-2.2,2.1l-0.5,0.6l0.3,0.7
			c0.3,0.8,0.4,1.6,0.4,2.5l0,0.8l0.6,0.4c0.7,0.5,1.7,0.9,2.8,1.2c0,0.2,0,0.4-0.1,0.5c-0.7-0.1-1.4-0.2-1.9-0.2
			c-0.4,0-0.8,0-1.1,0.1l-0.8,0.1l-0.3,0.7c-0.4,0.8-0.9,1.5-1.5,2.1l-0.5,0.5l0.1,0.7c0.1,0.8,0.5,1.8,1.1,2.8
			c-0.1,0.1-0.3,0.2-0.4,0.3c-0.7-1-1.4-1.7-2.1-2.2L53,31.3l-0.7,0.2c-0.8,0.3-1.7,0.4-2.5,0.4L49,32l-0.4,0.6
			c-0.5,0.7-0.9,1.7-1.2,2.8c-0.2,0-0.4-0.1-0.5-0.1c0.2-1.2,0.2-2.2,0.1-3.1l-0.1-0.8l-0.7-0.3c-0.8-0.4-1.5-0.9-2.1-1.5l-0.6-0.5
			l-0.8,0.1c-0.9,0.2-1.8,0.5-2.8,1.1c-0.1-0.1-0.2-0.3-0.3-0.4c1-0.7,1.7-1.4,2.2-2.1l0.4-0.6L42,26.6c-0.3-0.8-0.4-1.7-0.4-2.5
			l0-0.8l-0.6-0.4c-0.7-0.5-1.6-0.9-2.8-1.2c0-0.2,0.1-0.4,0.1-0.5c0.7,0.1,1.3,0.2,1.9,0.2c0.4,0,0.8,0,1.2-0.1L42,21l0.3-0.7
			c0.4-0.8,0.9-1.5,1.5-2.1l0.5-0.6l-0.1-0.8c-0.2-0.9-0.5-1.8-1.1-2.8c0.1-0.1,0.3-0.2,0.5-0.3c0.7,1,1.4,1.7,2.1,2.2l0.6,0.4
			l0.7-0.2c0.8-0.3,1.7-0.4,2.5-0.4l0.8,0l0.4-0.6C51.3,14.4,51.7,13.5,52,12.3 M49.6,28.5c0.9,0,1.7-0.2,2.5-0.7
			c1-0.7,1.8-1.7,2-2.9c0.3-1.2,0.1-2.4-0.6-3.5c-0.9-1.3-2.3-2.1-3.9-2.1c-0.9,0-1.7,0.2-2.5,0.7c-2.1,1.4-2.8,4.2-1.4,6.4
			C46.6,27.7,48.1,28.5,49.6,28.5 M52,10.8c-0.6,0-1.2,0.2-1.3,0.8c-0.3,1.2-0.7,2-1.1,2.6c-1,0-2,0.2-3,0.5
			c-0.6-0.4-1.3-1.1-1.9-2.1c-0.2-0.3-0.5-0.4-0.8-0.4c-1.1,0-2.7,1.3-2.1,2.3c0.6,1,1,1.9,1.1,2.7c-0.7,0.7-1.3,1.6-1.8,2.5
			c-0.3,0-0.6,0.1-0.9,0.1c-0.6,0-1.2-0.1-2-0.2c-0.1,0-0.1,0-0.2,0c-1.4,0-2,3.1-0.6,3.4c1.2,0.3,2,0.7,2.7,1.1c0,1,0.2,2,0.5,3
			c-0.4,0.6-1.1,1.3-2.1,1.9c-1.1,0.7,0.3,3.1,1.5,3.1c0.1,0,0.3,0,0.4-0.1c1-0.6,1.9-1,2.7-1.1c0.7,0.7,1.6,1.3,2.5,1.7
			c0.1,0.7,0.1,1.7-0.1,2.9c-0.2,0.9,1,1.5,2.1,1.5c0.6,0,1.2-0.2,1.3-0.8c0.3-1.2,0.7-2.1,1.1-2.7c1,0,2-0.2,3-0.5
			c0.6,0.4,1.3,1.1,1.9,2.1c0.2,0.3,0.5,0.4,0.8,0.4c1.1,0,2.7-1.3,2.1-2.3c-0.6-1-1-1.9-1.1-2.7c0.7-0.7,1.3-1.6,1.7-2.5
			c0.3,0,0.6-0.1,0.9-0.1c0.6,0,1.3,0.1,2,0.2c0.1,0,0.1,0,0.2,0c1.4,0,2-3.1,0.6-3.4c-1.2-0.3-2.1-0.7-2.7-1.1c0-1-0.2-2-0.5-3
			c0.4-0.6,1.1-1.3,2.1-1.9c1.1-0.7-0.2-3.1-1.4-3.1c-0.1,0-0.3,0-0.4,0.1c-1,0.6-1.9,1-2.6,1.1c-0.7-0.7-1.6-1.3-2.5-1.8
			c-0.1-0.7-0.1-1.7,0.2-2.9C54.2,11.5,53,10.8,52,10.8L52,10.8z M49.6,27c-1,0-2-0.5-2.6-1.4c-0.9-1.5-0.5-3.4,1-4.3
			c0.5-0.3,1.1-0.5,1.7-0.5c1,0,2,0.5,2.6,1.4c0.9,1.5,0.5,3.4-1,4.3C50.8,26.8,50.2,27,49.6,27L49.6,27z"/>
	</g>
	<path fill-rule="evenodd" clip-rule="evenodd" fill="none" stroke="#1279BF" stroke-width="1.5" stroke-miterlimit="10" d="
		M43.1,50.6c-1.1-0.6-1.8-1.2-2.3-1.8c0.3-0.9,0.5-1.9,0.7-2.9c0.7-0.3,1.6-0.6,2.9-0.6c1.4-0.1,1.3-3.5-0.1-3.5
		c-1.2,0-2.2-0.1-2.9-0.4c-0.2-1-0.5-1.9-0.9-2.8c0.4-0.6,1.1-1.3,2.2-2c1.1-0.8-0.7-3.7-1.9-3c-1,0.6-2,1-2.7,1.1
		c-0.7-0.8-1.4-1.4-2.2-2c0-0.8,0.3-1.7,0.9-2.8c0.6-1.3-2.4-2.9-3.1-1.6c-0.6,1.1-1.2,1.8-1.8,2.3c-0.9-0.3-1.9-0.5-2.9-0.7
		c-0.3-0.7-0.6-1.6-0.6-2.9c-0.1-1.4-3.5-1.3-3.5,0.1c0,1.2-0.1,2.2-0.4,2.9c-1,0.2-1.9,0.5-2.9,0.9c-0.6-0.4-1.3-1.1-2-2.2
		c-0.8-1.1-3.6,0.7-3,1.9c0.6,1.1,1,2,1.1,2.7c-0.8,0.7-1.4,1.4-2,2.2c-0.8-0.1-1.7-0.3-2.8-0.9c-1.3-0.6-2.8,2.4-1.6,3.1
		c1.1,0.6,1.9,1.2,2.3,1.8c-0.3,0.9-0.5,1.9-0.6,2.9c-0.7,0.3-1.6,0.6-2.9,0.6c-1.4,0.1-1.2,3.5,0.1,3.5c3.3-0.1,2.7,0.7,3.8,3.3
		c-0.4,0.6-1.1,1.3-2.2,2c-1.1,0.8,0.7,3.6,1.9,3c1.1-0.6,2-1,2.7-1.1c0.7,0.7,1.4,1.4,2.2,2c0,0.8-0.3,1.7-0.9,2.8
		c-0.6,1.3,2.4,2.8,3.1,1.6c0.6-1.1,1.2-1.9,1.8-2.3c0.9,0.3,1.9,0.5,2.9,0.6c0.3,0.7,0.6,1.6,0.6,2.9c0.1,1.4,3.5,1.3,3.5-0.1
		c0-1.2,0.1-2.2,0.4-2.9c1-0.2,1.9-0.5,2.8-0.9c0.6,0.4,1.3,1.1,2,2.2c0.8,1.1,3.7-0.7,3-1.9c-0.6-1-1-2-1.1-2.7
		c0.8-0.7,1.4-1.4,2-2.2c0.7,0,1.7,0.3,2.8,0.9C42.7,54.3,44.3,51.3,43.1,50.6z M27.6,55.7c-6.4,0.3-11.7-4.7-12-11
		c-0.3-6.4,4.7-11.7,11-12c6.4-0.3,11.7,4.7,12,11C38.9,50.1,33.9,55.4,27.6,55.7z M26.8,37.4c-3.8,0.2-6.7,3.3-6.5,7.1
		c0.2,3.8,3.3,6.7,7.1,6.5c3.8-0.2,6.7-3.3,6.5-7.1C33.8,40.1,30.6,37.2,26.8,37.4z M29.2,47.5c-1.8,1.1-4.2,0.6-5.4-1.2
		c-1.1-1.8-0.6-4.2,1.2-5.4c1.8-1.1,4.2-0.6,5.4,1.2C31.5,43.9,31,46.3,29.2,47.5z M33.9,43.9c-0.2-3.8-3.3-6.7-7.1-6.5
		c-3.8,0.2-6.7,3.3-6.5,7.1c0.2,3.8,3.3,6.7,7.1,6.5C31.1,50.8,34.1,47.6,33.9,43.9z M29.2,47.5c-1.8,1.1-4.2,0.6-5.4-1.2
		c-1.1-1.8-0.6-4.2,1.2-5.4c1.8-1.1,4.2-0.6,5.4,1.2C31.5,43.9,31,46.3,29.2,47.5z M33.9,43.9c-0.2-3.8-3.3-6.7-7.1-6.5
		c-3.8,0.2-6.7,3.3-6.5,7.1c0.2,3.8,3.3,6.7,7.1,6.5C31.1,50.8,34.1,47.6,33.9,43.9z M29.2,47.5c-1.8,1.1-4.2,0.6-5.4-1.2
		c-1.1-1.8-0.6-4.2,1.2-5.4c1.8-1.1,4.2-0.6,5.4,1.2C31.5,43.9,31,46.3,29.2,47.5z"/>
</g>
</svg>
