<?xml version="1.0" encoding="utf-8"?>
<!-- Generator: Adobe Illustrator 17.1.0, SVG Export Plug-In . SVG Version: 6.00 Build 0)  -->
<!DOCTYPE svg PUBLIC "-//W3C//DTD SVG 1.1//EN" "http://www.w3.org/Graphics/SVG/1.1/DTD/svg11.dtd" [
	<!ENTITY ns_extend "http://ns.adobe.com/Extensibility/1.0/">
	<!ENTITY ns_ai "http://ns.adobe.com/AdobeIllustrator/10.0/">
	<!ENTITY ns_graphs "http://ns.adobe.com/Graphs/1.0/">
	<!ENTITY ns_vars "http://ns.adobe.com/Variables/1.0/">
	<!ENTITY ns_imrep "http://ns.adobe.com/ImageReplacement/1.0/">
	<!ENTITY ns_sfw "http://ns.adobe.com/SaveForWeb/1.0/">
	<!ENTITY ns_custom "http://ns.adobe.com/GenericCustomNamespace/1.0/">
	<!ENTITY ns_adobe_xpath "http://ns.adobe.com/XPath/1.0/">
]>
<svg version="1.1" id="Layer_1" xmlns:x="&ns_extend;" xmlns:i="&ns_ai;" xmlns:graph="&ns_graphs;"
	 xmlns="http://www.w3.org/2000/svg" xmlns:xlink="http://www.w3.org/1999/xlink" x="0px" y="0px" viewBox="0 0 90 90"
	 enable-background="new 0 0 90 90" xml:space="preserve">

	
		<i:pgfRef  xlink:href="#adobe_illustrator_pgf">
		</i:pgfRef>
	
	<g>
	<polyline fill="none" stroke="#5D9741" stroke-width="3" stroke-miterlimit="10" points="69.3,57.4 21.1,57.4 4.4,57.4 4.4,40.7 
		4.4,30.4 4.4,13.3 21.1,13.3 69.3,13.3 86.3,13.3 86.3,30.4 86.3,40.7 86.3,57.4 69.3,57.4 	"/>
	<path fill="none" stroke="#5D9741" stroke-width="3" stroke-miterlimit="10" d="M4.4,40.7c9.4,0,16.7,7.3,16.7,16.7"/>
	<path fill="none" stroke="#5D9741" stroke-width="3" stroke-miterlimit="10" d="M86.3,40.7c-9.4,0-17,7.3-17,16.7"/>
	<path fill="none" stroke="#5D9741" stroke-width="3" stroke-miterlimit="10" d="M4.4,30.4c9.4,0,16.7-7.6,16.7-17c0,0,0-0.1,0-0.1"
		/>
	<path fill="none" stroke="#5D9741" stroke-width="3" stroke-miterlimit="10" d="M86.3,30.4c-9.4,0-17-7.6-17-17c0,0,0-0.1,0-0.1"/>
</g>
<g>
	<path fill="#5D9741" d="M51.2,44c0-1.4-0.5-2.6-1.5-3.6c-1-1-2.6-1.9-4.9-2.7c-3.1-0.9-5.5-2.2-7.1-3.8c-1.6-1.6-2.4-3.7-2.4-6.3
		c0-2.6,0.7-4.7,2.2-6.3c1.5-1.6,3.5-2.6,6.1-2.9v-5.1h3.7v5.2c2.6,0.4,4.6,1.5,6.1,3.3c1.4,1.9,2.2,4.3,2.2,7.5h-4.6
		c0-2.1-0.5-3.8-1.5-5.1c-1-1.3-2.3-2-4.1-2c-1.8,0-3.2,0.5-4.1,1.4c-0.9,1-1.4,2.3-1.4,3.9c0,1.5,0.5,2.7,1.4,3.7
		c0.9,0.9,2.6,1.8,5.1,2.7c3.2,1,5.5,2.3,7.1,3.8s2.3,3.6,2.3,6.2c0,2.7-0.8,4.8-2.4,6.4c-1.6,1.6-3.8,2.5-6.6,2.8v4.2h-3.7v-4.2
		c-2.7-0.3-4.9-1.3-6.6-2.9c-1.7-1.7-2.5-4.1-2.5-7.4l0-0.1h4.4c0,2.4,0.6,4.1,1.8,5.1s2.7,1.5,4.4,1.5c2,0,3.6-0.5,4.7-1.4
		C50.6,47,51.2,45.7,51.2,44z"/>
</g>
<line fill="#FFFFFF" stroke="#5D9741" stroke-width="3" stroke-miterlimit="10" x1="2.9" y1="67.4" x2="86.9" y2="67.4"/>
<line fill="#FFFFFF" stroke="#5D9741" stroke-width="3" stroke-miterlimit="10" x1="2.9" y1="76.4" x2="86.9" y2="76.4"/>
<path fill="#5D9741" d="M25.8,31.9c2,0,3.6,1.6,3.6,3.6c0,2-1.6,3.6-3.6,3.6s-3.6-1.6-3.6-3.6C22.1,33.5,23.8,31.9,25.8,31.9
	L25.8,31.9z"/>
<path fill="#5D9741" d="M64.6,31.9c2,0,3.6,1.6,3.6,3.6c0,2-1.6,3.6-3.6,3.6c-2,0-3.6-1.6-3.6-3.6C61,33.5,62.6,31.9,64.6,31.9
	L64.6,31.9z"/>


</svg>
