<?xml version="1.0" encoding="utf-8"?>
<!DOCTYPE svg PUBLIC "-//W3C//DTD SVG 1.1//EN" "http://www.w3.org/Graphics/SVG/1.1/DTD/svg11.dtd">
<svg version="1.1" xmlns="http://www.w3.org/2000/svg" xmlns:xlink="http://www.w3.org/1999/xlink"
	width="90px" height="90px" xml:space="preserve">
<g id="Layer_2" display="none">
	<path display="inline" fill="#5D9741" d="M53.263,37.376V34.26c0-0.598-0.333-1.022-0.837-1.34c-1.076-0.681-2.732-0.98-4-1.27
		v-2.293l0.498-0.428c1.161-0.997,1.545-2.689,1.044-4.117c-0.435-1.24-1.432-2.011-2.777-2.011c-1.344,0-2.349,0.771-2.78,2.015
		c-0.492,1.417-0.124,3.117,1.041,4.107l0.504,0.428v2.299c-1.27,0.291-2.922,0.59-4,1.272c-0.503,0.318-0.836,0.742-0.836,1.339
		v3.116h5.008v-2.128c-0.221-0.25-0.354-0.578-0.354-0.937c0-0.783,0.634-1.417,1.417-1.417c0.783,0,1.417,0.634,1.417,1.417
		c0,0.359-0.134,0.688-0.354,0.937v2.128H53.263L53.263,37.376z M57.408,47.244v17.891H36.974V47.244h-4.048v-9.868h5.359V34.26
		c0-1.741,0.862-2.906,2.165-3.731c0.577-0.365,1.234-0.649,1.929-0.88c-1.079-1.702-1.294-3.859-0.636-5.753
		c0.83-2.394,2.871-3.93,5.449-3.93c2.563,0,4.611,1.537,5.445,3.915c0.667,1.899,0.446,4.061-0.636,5.767
		c0.695,0.232,1.354,0.515,1.932,0.881c1.303,0.824,2.165,1.989,2.165,3.732v3.116h5.359v9.868H57.408L57.408,47.244z
		 M39.809,47.244v15.056h14.765V47.244H39.809L39.809,47.244z M35.761,40.211v4.199h22.86v-4.199H35.761L35.761,40.211z"/>
</g>
<g id="Layer_1">
	<rect x="23.862" y="38.382" fill="none" stroke="#5D9741" stroke-width="3" stroke-miterlimit="10" width="42" height="10.932"/>
	
		<rect x="32.862" y="49.315" fill="none" stroke="#5D9741" stroke-width="3" stroke-miterlimit="10" width="24.029" height="25.068"/>
	<path fill="none" stroke="#5D9741" stroke-width="3" stroke-linejoin="round" stroke-miterlimit="10" d="M40.428,25.964
		c0,0-3.22,0.968-4.076,1.511c-1.933,1.223-3.212,1.324-3.212,6.276v4.623"/>
	<path fill="none" stroke="#5D9741" stroke-width="3" stroke-linejoin="round" stroke-miterlimit="10" d="M55.845,38.374v-4.623
		c0-4.953-2.378-5.607-3.712-6.276s-4.137-1.498-4.137-1.498c2.532-2.175,3.368-5.862,2.275-8.976
		c-0.948-2.703-3.122-4.383-6.053-4.383c-2.929,0-5.122,1.681-6.06,4.392c-1.072,3.089-0.269,6.796,2.27,8.954
		c0,0-2.868,0.854-4.076,1.511c-1.208,0.657-3.212,1.324-3.212,6.276v4.623"/>
	
		<line fill="none" stroke="#5D9741" stroke-width="3" stroke-linecap="round" stroke-miterlimit="10" x1="44.467" y1="38.356" x2="44.467" y2="32.19"/>
	<circle fill="#5D9741" cx="44.48" cy="31.85" r="1.82"/>
</g>
</svg>
