<?xml version="1.0" encoding="utf-8"?>
<!-- Generator: Adobe Illustrator 18.1.0, SVG Export Plug-In . SVG Version: 6.00 Build 0)  -->
<svg version="1.1" id="Layer_1" xmlns="http://www.w3.org/2000/svg" xmlns:xlink="http://www.w3.org/1999/xlink" x="0px" y="0px"
	 viewBox="-53 0 180 180" enable-background="new -53 0 180 180" xml:space="preserve">
<path fill="#157ABF" d="M6.4,122.4c-0.8-7-6.7-12.4-13.9-12.4s-13,5.4-13.9,12.4c-0.1,0.6-0.2,1.1-0.2,1.7c0,7.8,6.3,14.1,14.1,14.1
	s14.1-6.3,14.1-14.1C6.5,123.4,6.5,123,6.4,122.4z M-7.6,129.6c-3,0-5.5-2.5-5.5-5.5c0-0.6,0.1-1.1,0.2-1.7c0.7-2.2,2.8-3.9,5.3-3.9
	s4.6,1.7,5.3,3.9c0.2,0.6,0.3,1.1,0.3,1.7C-1.9,127.1-4.4,129.6-7.6,129.6z"/>
<path fill="#157ABF" d="M104,122.4c-0.8-7-6.7-12.4-13.9-12.4s-13,5.4-13.9,12.4c-0.1,0.6-0.2,1.1-0.2,1.7c0,7.8,6.3,14.1,14.1,14.1
	s14.1-6.3,14.1-14.1C104.1,123.4,104,123,104,122.4z M90.1,129.6c-3,0-5.5-2.5-5.5-5.5c0-0.6,0.1-1.1,0.2-1.7
	c0.7-2.2,2.8-3.9,5.3-3.9c2.5,0,4.6,1.7,5.3,3.9c0.1,0.6,0.3,1.1,0.3,1.7C95.6,127.1,93.1,129.6,90.1,129.6z"/>
<path fill="none" stroke="#157ABF" stroke-width="3" stroke-miterlimit="10" d="M110.4,82.9c-5.3-1.3-9.7-2.5-9.7-2.5L96,68.8
	c-2-6.3-8.9-11.4-15.5-11.4H60v65h7.1C68,110.5,77.9,101,90.1,101c12.1,0,22,9.4,22.9,21.4h7.1V97.2C120,90.7,115.7,84.3,110.4,82.9
	z"/>
<path fill="none" stroke="#157ABF" stroke-width="3" stroke-miterlimit="10" d="M91.5,78.1H72.6V64.5h8.2c3.4,0,7.2,2.8,8.2,6
	L91.5,78.1z"/>
<path fill="none" stroke="#157ABF" stroke-width="3" stroke-miterlimit="10" d="M50.9,43.2v79.2H15.4C14.5,110.5,4.6,101-7.6,101
	s-22,9.4-22.9,21.4h-11.6V43.2H50.9z"/>
</svg>
