<?xml version="1.0" encoding="utf-8"?>
<!-- Generator: Adobe Illustrator 17.1.0, SVG Export Plug-In . SVG Version: 6.00 Build 0)  -->
<!DOCTYPE svg PUBLIC "-//W3C//DTD SVG 1.1//EN" "http://www.w3.org/Graphics/SVG/1.1/DTD/svg11.dtd">
<svg version="1.1" id="Layer_1" xmlns="http://www.w3.org/2000/svg" xmlns:xlink="http://www.w3.org/1999/xlink" x="0px" y="0px"
	 width="45px" height="45px" viewBox="-5 -1.5 45 45" enable-background="new -5 -1.5 45 45" xml:space="preserve">
<g>
	<path fill="#0079C2" d="M34.4,33.6c-0.2-0.2-0.4-0.2-0.6-0.2c-0.4,0-1.2,0.1-2.2,0.2c0.6-1.3,1.4-3.2,1.4-5.3
		c0-1.2-0.4-7.4-8.3-12.2c-0.1-1-0.5-2-1.1-2.8l4.7-7.1c0.3-0.4,0.2-0.9-0.2-1.2L19-0.9C18.8-1,18.6-1,18.4-1
		c-0.2,0-0.4,0.2-0.5,0.4L2.9,21.9c-0.3,0.4-0.2,0.9,0.2,1.2l0.8,0.5l-1.6,2.3c-0.1,0.2-0.2,0.4-0.1,0.6c0,0.2,0.2,0.4,0.4,0.5l6,4
		c0.1,0.1,0.3,0.1,0.5,0.1c0.3,0,0.5-0.1,0.7-0.4l1.6-2.3l0.8,0.5c0.1,0.1,0.3,0.1,0.5,0.1c0.1,0,0.1,0,0.2,0c0.2,0,0.4-0.2,0.5-0.4
		l4.8-7.2c0.5,0.1,1,0.2,1.5,0.2c1.1,0,2-0.3,2.9-0.9c2.5,2.7,3.4,5.6,3.4,7.5c0,3.3-3.7,5.8-4.4,6.3C13.2,35.3,4,36.3,3.2,36.5
		c-1.6,0.4-2.7,3.4-3,4.3c-0.1,0.3,0,0.8,0.1,1C0.5,42,0.7,42.3,1,42.3h32.9c0.5,0,0.8-0.8,0.8-1.3v-6.9
		C34.7,34,34.6,33.7,34.4,33.6z M8.8,29.2l-4.6-3l1.1-1.6l4.6,3L8.8,29.2z M12.3,27.1l-7.5-5L18.8,1l7.5,5l-4.1,6.2
		c-0.8-0.5-1.7-0.8-2.7-0.8c-2.8,0-5.1,2.3-5.1,5.1c0,1.7,0.8,3.2,2.1,4.1L12.3,27.1z M16.1,16.6c0-1.9,1.5-3.4,3.4-3.4
		c1.9,0,3.4,1.5,3.4,3.4S21.4,20,19.5,20C17.6,20,16.1,18.5,16.1,16.6z M27.4,28.3c0-1.1-0.3-4.8-3.9-8.6c0.4-0.5,0.7-1.1,0.8-1.7
		c6.6,4.4,6.8,9.7,6.8,10.3c0,2.4-1.2,4.6-1.7,5.5c-1.5,0.1-3.2,0.3-5.1,0.5C25.9,32.9,27.4,30.8,27.4,28.3z M32.9,40.7H2.2
		c0.4-1.5,1.3-2.5,1.6-2.6c1.1-0.3,18-1.9,29-3L32.9,40.7z"/>
</g>
</svg>
