<?xml version="1.0" encoding="utf-8"?>
<!-- Generator: Adobe Illustrator 18.1.1, SVG Export Plug-In . SVG Version: 6.00 Build 0)  -->
<svg version="1.1" id="Layer_1" xmlns="http://www.w3.org/2000/svg" xmlns:xlink="http://www.w3.org/1999/xlink" x="0px" y="0px"
	 viewBox="0 0 70 70" enable-background="new 0 0 70 70" xml:space="preserve">
<g>
	<path fill="#1279BF" d="M36.2,62.1h-5.9V44.3L19,55.8l-6.5-6.5L23.9,38H6.1V32h17.5L12.5,21.6L13,21c0,0,1.4-1.4,3-3l2.8-2.8
		l11.3,10.7v-18h5.9v17.9L48,14.3l5.9,6.5L42.5,32h17.8V38H42.5l11.6,11.3l-6.5,6.5L36.2,44.3V62.1z M31.7,60.6h2.9V40.7l13,12.9
		l4.4-4.3L38.8,36.5h20v-2.9h-20l12.9-12.8l-3.9-4.2L34.7,29.4v-20h-2.9v19.9l-12.8-12l-1.8,1.8c-1,1-1.9,1.9-2.5,2.5l12.7,12H7.6
		v2.9h19.9L14.7,49.3l4.4,4.4l12.7-13V60.6z"/>
</g>
</svg>
