<?xml version="1.0" encoding="utf-8"?>
<!-- Generator: Adobe Illustrator 17.1.0, SVG Export Plug-In . SVG Version: 6.00 Build 0)  -->
<!DOCTYPE svg PUBLIC "-//W3C//DTD SVG 1.1//EN" "http://www.w3.org/Graphics/SVG/1.1/DTD/svg11.dtd">
<svg version="1.1" id="phone" xmlns="http://www.w3.org/2000/svg" xmlns:xlink="http://www.w3.org/1999/xlink" x="0px" y="0px"
	 width="140px" height="140px" viewBox="0 0 140 140" enable-background="new 0 0 140 140" xml:space="preserve">
<g>
	<path fill="none" stroke="#0A79BE" stroke-width="3" stroke-linecap="round" stroke-miterlimit="10" d="M75.9,75.6
		c-0.1-6.6-5.5-11.9-12-11.9h-0.1"/>
	<path fill="none" stroke="#0A79BE" stroke-width="3" stroke-linecap="round" stroke-miterlimit="10" d="M63.8,51.5h0.1
		c13.4,0,24.3,10.8,24.3,24.1"/>
	<path fill="none" stroke="#0A79BE" stroke-width="3" stroke-linecap="round" stroke-miterlimit="10" d="M63.8,39.4h0.1
		c20.1,0,36.4,16.2,36.5,36.3"/>
	<path fill="none" stroke="#0A79BE" stroke-width="3" stroke-linecap="round" stroke-miterlimit="10" d="M63.8,25.6h0.1
		c27.7,0,50.1,22.4,50.2,50.1"/>
</g>
<g>
	<line fill="none" stroke="#0A79BE" stroke-width="3" stroke-miterlimit="10" x1="74.4" y1="95.7" x2="74.4" y2="95.7"/>
	<path fill="none" stroke="#0A79BE" stroke-width="3" stroke-miterlimit="10" d="M74.4,95.7"/>
	<path fill="none" stroke="#0A79BE" stroke-width="3" stroke-miterlimit="10" d="M100.7,105.3c1.1-1.2,1.1-3.1-0.1-4.2l-14-13.5
		c-1.2-1.1-3.1-1.1-4.2,0.1l-7.7,8l-0.3-0.1c-5.3-2.7-10.7-6.3-15.7-10.8c-6.1-5.6-11-11.8-14.5-18l7.7-8c1.1-1.2,1.1-3.1-0.1-4.2
		L37.9,41.1c-1.2-1.1-3.1-1.1-4.3,0.1c0,0-4.2,3.3-6.1,7.9c-5.3,13.3,3.3,30.7,20.9,46.8c15.6,14.2,33.8,22.2,44.2,17
		C96.7,110.8,100.7,105.3,100.7,105.3z"/>
</g>
</svg>
