<?xml version="1.0" encoding="utf-8"?>
<!-- Generator: Adobe Illustrator 18.1.1, SVG Export Plug-In . SVG Version: 6.00 Build 0)  -->
<svg version="1.1" id="Layer_1" xmlns="http://www.w3.org/2000/svg" xmlns:xlink="http://www.w3.org/1999/xlink" x="0px" y="0px"
	 viewBox="0 0 65 65" enable-background="new 0 0 65 65" xml:space="preserve">
<g>
	<path fill="#1A89CA" d="M61,32.8l-9.3-16.5c-0.3-0.6-0.9-0.9-1.5-0.9c-0.3,0-0.6,0.1-0.9,0.3l-3.8,2.3c-0.8,0.5-1.1,1.6-0.6,2.5
		l0.5,0.9c-0.7,0.2-1.4,0.4-1.9,0.3c-0.6-0.1-1.4-0.2-2.3-0.4c-1.6-0.4-3.5-0.8-5.7-0.8l-0.1,0c-3.1,0-8.6,0.3-9.7,2
		c-0.2,0.2-0.3,0.5-0.5,0.7c-0.3-0.1-0.6-0.1-1-0.2c-1-0.2-2.5-0.4-3-0.6c-0.4-0.2-1.2-0.7-1.9-1.2l0.4-0.8c0.5-0.9,0.2-2-0.6-2.5
		l-3.8-2.3c-0.3-0.2-0.6-0.3-0.9-0.3c-0.6,0-1.2,0.3-1.5,0.9L3.3,32.8c-0.5,0.9-0.2,2,0.6,2.5l3.8,2.3c0.3,0.2,0.6,0.3,0.9,0.3
		c0.6,0,1.2-0.3,1.6-0.9l0.7-1.3l0.7,0.8c0.1,0.1,0.7,0.9,1.6,2L13,38.7c-1,1.3-0.6,3.3,0.7,4.4c0.5,0.5,1.2,0.7,1.9,0.8
		c-0.1,1.1,0.4,2.2,1.3,2.9c0.6,0.5,1.4,0.8,2.1,0.8c0.2,0,0.4,0,0.6-0.1c0.2,0.7,0.6,1.4,1.2,1.9c0.6,0.5,1.4,0.8,2.1,0.8
		c0.3,0,0.6-0.1,0.9-0.1c0.2,0.6,0.6,1.2,1.1,1.7c0.6,0.5,1.4,0.8,2.1,0.8c0.9,0,1.7-0.4,2.3-1.1l0.5-0.6c2,0.7,3.2,0.9,3.4,1
		c0.2,0.1,1,0.2,1.9,0.2c0.7,0,1.6-0.1,2.2-0.5c1-0.5,1.7-1.5,2.1-2.1c0.7,0,1.7,0,2.4-0.5c1-0.6,1.3-1.8,1.4-2.6
		c0.7,0,1.6-0.2,2.3-0.7c0.9-0.7,1.2-1.7,1.3-2.5c1.1,0.1,2.5-0.2,3.3-1.7c0.6-1.1,0.6-2.2,0-3.1c0.4-0.3,1-0.6,1.5-1.1
		c0.4-0.3,0.6-0.6,0.9-0.9c0.2-0.2,0.4-0.5,0.7-0.7l0.7,1.2c0.3,0.6,0.9,0.9,1.5,0.9c0.3,0,0.6-0.1,0.9-0.3l3.8-2.3
		C61.2,34.8,61.5,33.6,61,32.8z M46.4,19.5l3.7-2.3l9.3,16.5L55.7,36L46.4,19.5z M51.4,35.1c-0.2,0.2-0.5,0.5-0.8,0.8
		C50,36.5,49.4,36.8,49,37c0,0,0,0,0,0l-0.9-0.8l0,0c-0.1,0-0.9-0.7-2.6-2c-1.2-0.9-2.8-2-4.9-3.5c-0.3-0.2-1.2-0.8-1.3-0.9
		c-3.1-1.9-6.9-3.8-7.1-3.9c-0.1-0.1-0.3-0.1-0.4-0.1c-0.1,0-0.2,0-0.3,0l-2.4,0.8c-0.2,0.1-0.4,0.2-0.5,0.4c0,0-2.1,3.4-5.1,3.6
		c-0.1,0-0.3,0-0.4,0c-0.3,0-0.4-0.1-0.4,0c0,0-0.1-0.3,0.1-1c0.6-1.2,3.9-5.8,4.1-6.1c0-0.1,0.1-0.1,0.1-0.2
		c0.4-0.6,3.7-1.2,8.3-1.2l0.1,0c1.9,0,3.7,0.4,5.3,0.8c1,0.2,1.8,0.4,2.6,0.5c0.9,0.1,2-0.2,3-0.5l6.3,11.2
		C52.5,34.1,51.7,34.8,51.4,35.1z M8.7,36l-3.7-2.3l9.3-16.5l3.7,2.3L8.7,36z M27.9,50.4c-0.2,0.3-0.6,0.4-0.8,0.4
		c-0.3,0-0.7-0.1-1-0.4c-0.4-0.4-0.7-0.9-0.6-1.4c0-0.2,0.1-0.4,0.2-0.6c0,0,0,0,0,0l0.2-0.2l0.6-0.8l1.2-1.6
		c0.2-0.3,0.6-0.4,0.8-0.4c0.3,0,0.7,0.1,1,0.4c0.6,0.5,0.8,1.4,0.4,1.9l-0.6,0.8L28,50.2L27.9,50.4z M22.9,48.4
		c-0.3,0-0.7-0.1-1-0.4c-0.4-0.3-0.6-0.8-0.6-1.2c0-0.1,0-0.3,0.1-0.4c0-0.1,0.1-0.2,0.1-0.3l0.7-0.9l2.5-3.4
		c0.1-0.1,0.2-0.2,0.2-0.2c0.2-0.1,0.4-0.2,0.6-0.2c0.3,0,0.7,0.1,1,0.4c0.6,0.5,0.8,1.4,0.4,1.9l-2.1,2.9l-1,1.4c0,0,0,0.1-0.1,0.1
		C23.4,48.4,23.1,48.4,22.9,48.4z M17.5,43.7c0-0.1,0.1-0.1,0.1-0.2l0.9-1.3l0-0.1l0.8-1.1c0,0,0,0,0,0l2.1-2.9
		c0.2-0.3,0.6-0.4,0.8-0.4c0.3,0,0.7,0.1,1,0.4c0.6,0.5,0.8,1.4,0.4,1.9l-0.2,0.2c-0.1,0.1-0.3,0.3-0.4,0.4l-2.5,3.4L20,45
		c-0.1,0.1-0.2,0.3-0.3,0.5c-0.1,0.1-0.1,0.1-0.2,0.2c-0.2,0.1-0.4,0.1-0.5,0.1c-0.3,0-0.7-0.1-1-0.4C17.5,45,17.3,44.2,17.5,43.7z
		 M14.4,39.8C14.4,39.8,14.4,39.8,14.4,39.8l1.1-1.5l0.2-0.2c0.2-0.3,0.6-0.4,0.8-0.4c0.3,0,0.7,0.1,1,0.4c0.6,0.5,0.8,1.4,0.4,1.9
		c0,0,0,0,0,0l-0.5,0.7l-0.1,0.2l-0.6,0.9c-0.1,0.2-0.3,0.3-0.5,0.3c-0.1,0-0.3,0.1-0.3,0.1c-0.3,0-0.7-0.1-1-0.4
		C14.3,41.2,14.1,40.4,14.4,39.8z M48.6,40.7c-0.5,0.9-1.5,0.8-2.1,0.7L38,36.2c-0.4-0.3-1-0.1-1.2,0.3c-0.3,0.4-0.1,1,0.3,1.2
		l8,4.8c0,0.4,0,1.2-0.6,1.7c-0.3,0.3-1.2,0.3-1.7,0.3l-7.2-4.2c-0.4-0.3-1-0.1-1.2,0.3c-0.3,0.4-0.1,1,0.3,1.2l6.9,4
		c-0.1,0.5-0.2,1.2-0.7,1.5c-0.4,0.2-1.3,0.2-1.8,0.2c0,0-0.1,0-0.1,0l-6-2.9c-0.5-0.2-1,0-1.2,0.4c-0.2,0.5,0,1,0.4,1.2l5.4,2.6
		c-0.3,0.4-0.7,0.7-1.1,1c-0.8,0.5-2.4,0.2-2.9,0.1c0,0-0.1,0-0.1,0c0,0-1-0.2-2.6-0.7l0.3-0.4c1-1.3,0.6-3.3-0.7-4.4
		c-0.5-0.4-1.1-0.7-1.7-0.7c0.2-1.2-0.2-2.5-1.2-3.3c-0.5-0.4-1.2-0.7-1.8-0.8c0.1-1-0.4-2.1-1.3-2.9c-0.6-0.5-1.4-0.8-2.1-0.8
		c-0.9,0-1.7,0.4-2.3,1.1l-0.5,0.7c-0.2-0.4-0.5-0.8-0.9-1.1c-0.6-0.5-1.4-0.8-2.1-0.8c-0.8,0-1.6,0.4-2.1,1c-0.8-1-1.3-1.6-1.3-1.7
		c0,0,0,0,0,0l-1.1-1.2l6.3-11.2c0.8,0.5,1.5,0.9,1.9,1.2c0.8,0.4,2.2,0.7,3.6,0.9c0,0,0,0,0.1,0c-1,1.4-2.1,3-2.7,4.2
		c0,0,0,0.1-0.1,0.1c-0.2,0.8-0.4,1.9,0.2,2.7c0.4,0.5,1,0.8,1.9,0.8c0.2,0,0.4,0,0.6,0c3.4-0.3,5.7-3.2,6.3-4.2l1.7-0.5
		c1,0.5,4.2,2.1,6.7,3.7c0.1,0.1,1.1,0.7,1.2,0.8c2.2,1.5,3.8,2.7,5,3.6c0.8,0.6,1.6,1.3,2.3,1.8c0,0,0,0,0,0l1.3,1.1
		C49.1,39.6,48.9,40.2,48.6,40.7z"/>
</g>
</svg>
