<?xml version="1.0" encoding="utf-8"?>
<!-- Generator: Adobe Illustrator 18.1.1, SVG Export Plug-In . SVG Version: 6.00 Build 0)  -->
<svg version="1.1" id="Layer_1" xmlns="http://www.w3.org/2000/svg" xmlns:xlink="http://www.w3.org/1999/xlink" x="0px" y="0px"
	 viewBox="0 0 30 30" enable-background="new 0 0 30 30" xml:space="preserve">
<path fill="none" stroke="#1779BF" stroke-width="0.7" stroke-miterlimit="10" d="M13.2,4L14,5.6c0.8,1.7,1.2,1.9,1.4,1.9
	c0.2,0,0.6-0.2,1.5-1.8l0.9-1.6l0,1.8c0,1.8,0.3,2.2,0.4,2.3c0.2,0.1,0.6,0,2-1.2l1.4-1.2l-0.7,1.7c-0.7,1.7-0.6,2.2-0.5,2.3
	c0.1,0.1,0.5,0.3,2.3-0.3l1.8-0.6l-1.3,1.3c-1.3,1.3-1.3,1.8-1.3,2c0.1,0.2,0.4,0.5,2.3,0.7l1.7,0.2L24.4,14
	c-1.7,0.8-1.9,1.2-1.9,1.4c0,0.2,0.2,0.6,1.8,1.5l1.6,0.9l-1.8,0c-1.8,0-2.2,0.3-2.3,0.4c-0.1,0.2,0,0.6,1.2,2l1.2,1.4l-1.7-0.7
	c-1.8-0.7-2.2-0.6-2.3-0.5c-0.1,0.1-0.2,0.6,0.3,2.3l0.6,1.8l-1.3-1.3c-1.3-1.3-1.8-1.3-2-1.3c-0.2,0.1-0.5,0.4-0.7,2.3L16.8,26
	L16,24.4c-0.8-1.7-1.2-1.9-1.4-1.9c-0.2,0-0.6,0.2-1.5,1.8l-0.9,1.6l0-1.8c0-1.8-0.3-2.2-0.4-2.3c-0.2-0.1-0.6,0-2,1.2l-1.4,1.2
	l0.7-1.7c0.7-1.8,0.6-2.2,0.5-2.3C9.5,20,9,19.8,7.3,20.4l-1.8,0.6l1.3-1.3c1.3-1.3,1.3-1.8,1.3-2c-0.1-0.2-0.4-0.5-2.3-0.7L4,16.8
	L5.6,16c1.7-0.8,1.9-1.2,1.9-1.4c0-0.2-0.2-0.6-1.8-1.5l-1.6-0.9l1.8,0c1.8,0,2.2-0.3,2.3-0.4c0.1-0.2,0-0.6-1.2-2L5.9,8.4l1.7,0.7
	c1.7,0.7,2.2,0.6,2.3,0.5c0.1-0.1,0.3-0.5-0.3-2.3L9.1,5.5l1.3,1.3c1.3,1.3,1.8,1.3,2,1.3c0.2-0.1,0.5-0.4,0.7-2.3L13.2,4z M15,9.9
	c-2.8,0-5.1,2.3-5.1,5.1c0,2.8,2.3,5.1,5.1,5.1c2.8,0,5.1-2.3,5.1-5.1C20.1,12.2,17.8,9.9,15,9.9z"/>
</svg>
