<?xml version="1.0" encoding="utf-8"?>
<!-- Generator: Adobe Illustrator 18.1.1, SVG Export Plug-In . SVG Version: 6.00 Build 0)  -->
<svg version="1.1" id="Layer_1" xmlns="http://www.w3.org/2000/svg" xmlns:xlink="http://www.w3.org/1999/xlink" x="0px" y="0px"
	 viewBox="0 0 100 45" enable-background="new 0 0 100 45" xml:space="preserve">
<path fill="#1279BF" d="M37.1,44.4L34,39.6l0.9-0.6c5.3-2.9,8.9-5.5,12.5-8.9c3.2-3,5.5-6.3,6.9-9.7c-1.9,3.3-4.5,6.5-7.3,9.1
	c-2.2,1.9-5.3,4.4-7.1,4.8h-0.2c-0.6,0-0.6,0-1.8-2.2c-1.8-4.1-1.5-8.8,0.7-12.9c1.6-2.8,3.9-4.6,6.2-6.4c1.3-1,2.7-2.1,3.9-3.3
	c2.7-2.8,4.8-4.8,6.8-8.1l0.7-1.1l0.8,1c6.2,7.5,9,14.1,8.5,20c-0.5,6.6-4.2,12-10.3,15.2c-3.5,1.7-5.9,2.3-9.9,2.2L37.1,44.4z
	 M36.6,40.1l1.1,1.7l7.1-5h0.3c3.8,0.1,6-0.4,9.3-2c5.6-2.9,8.9-7.6,9.4-13.7c0.4-5.2-2-11-7.3-17.7c-1.9,2.8-3.9,4.9-6.1,7.2
	c-1.4,1.4-2.8,2.5-4.2,3.6c-2.2,1.7-4.4,3.3-5.7,5.8c-2,3.6-2.3,7.7-0.7,11.2c0.2,0.3,0.4,0.7,0.5,1c1.3-0.6,3.6-2.2,5.7-4.1
	c3.5-3.2,6.5-7.3,8.4-11.5c0.5-1.1,1.7-3.6,1.7-3.6L58,9l-0.1,4.4c0,0.1-0.1,2.8-0.6,4.6c-1.3,4.8-4.1,9.3-8.4,13.4
	C45.1,34.7,41.6,37.3,36.6,40.1z"/>
</svg>
