<?xml version="1.0" encoding="utf-8"?>
<!-- Generator: Adobe Illustrator 18.1.1, SVG Export Plug-In . SVG Version: 6.00 Build 0)  -->
<svg version="1.1" id="Layer_1" xmlns="http://www.w3.org/2000/svg" xmlns:xlink="http://www.w3.org/1999/xlink" x="0px" y="0px"
	 viewBox="0 0 100 45" enable-background="new 0 0 100 45" xml:space="preserve">
<g>
	<path fill="#1279BF" d="M68.9,34.5H31.1c-1.8,0-2.6-1.6-2.6-2.7V13.2c0-0.1,0-1.2,0.8-1.9c0.3-0.3,1-0.8,1.9-0.8h37.4
		c2.3,0,3.2,1.6,3.5,2.5v0.2v2.9h2.4c0.8,0,1.8,0.5,1.8,2.1v8.8c0,1.5-1.1,2.1-1.7,2.2h-2.4V32C72.2,33,70.9,34.5,68.9,34.5z
		 M31.1,12.2c-0.3,0-0.5,0.1-0.6,0.3c-0.2,0.2-0.1,0.6-0.1,0.6v18.6c0,0.2,0.1,0.9,0.8,0.9h37.7c1,0,1.3-0.4,1.3-1V27h4.1
		c-0.1,0,0-0.1,0-0.3v-8.9c0-0.2,0-0.2,0-0.3h-4.1v-4.3c-0.1-0.2-0.4-1-1.6-1H31.1L31.1,12.2z M69.1,31.7H31.5V13.4h37.6
		C69.1,13.4,69.1,31.7,69.1,31.7z M33.2,29.9h34.1V15.3H33.2V29.9z"/>
	<polygon fill="#1279BF" points="34.9,16.9 48.6,16.9 46,28.2 34.9,28.2 	"/>
</g>
</svg>
