<?xml version="1.0" encoding="utf-8"?>
<!-- Generator: Adobe Illustrator 18.1.1, SVG Export Plug-In . SVG Version: 6.00 Build 0)  -->
<svg version="1.1" id="Layer_1" xmlns="http://www.w3.org/2000/svg" xmlns:xlink="http://www.w3.org/1999/xlink" x="0px" y="0px"
	 viewBox="0 0 100 45" enable-background="new 0 0 100 45" xml:space="preserve">
<path fill="#1279BF" d="M47.4,6.3c1.1,2,2.1,2.8,3.3,2.9l0,0l0,0c1.1,0,2-0.8,3.3-2.5c0.2,2.3,0.8,3.3,1.7,3.7
	c0.3,0.1,0.6,0.2,0.9,0.2c0.6,0,1.5-0.2,3-1.2c-0.7,2.1-0.6,3.3,0.2,4.1c0.7,0.8,1.7,0.8,2,0.8c0.6,0,1.2-0.1,2-0.2
	c-1.4,1.7-1.8,2.9-1.4,3.9c0.3,1,1.5,1.7,3.7,2.1c-2,1.1-2.8,2.1-2.9,3.2c0,1.1,0.7,2.1,2.5,3.3c-2.3,0.2-3.3,0.8-3.7,1.7
	c-0.5,1-0.2,2.1,1.1,3.9c-0.9-0.2-1.7-0.5-2.4-0.5c-0.8,0-1.4,0.2-1.8,0.6c-0.8,0.8-1,1.9-0.5,4.2c-1.7-1.4-2.5-1.5-3.2-1.5
	c-0.2,0-0.6,0-0.8,0.1c-1,0.3-1.7,1.5-2.1,3.7c-1.1-2-2.1-2.8-3.3-2.9l0,0l0,0c-1.1,0-2,0.8-3.3,2.5c-0.2-2.3-0.8-3.3-1.7-3.7
	c-0.2-0.1-0.6-0.2-0.9-0.2c-0.6,0-1.5,0.2-3,1.2c0.6-2.1,0.6-3.3-0.2-4.1c-0.7-0.6-1.7-0.6-2-0.6c-0.6,0-1.2,0.1-2,0.2
	c1.4-1.7,1.7-2.9,1.4-3.9c-0.3-1-1.5-1.7-3.7-2.1c2-1.1,2.8-2.1,2.9-3.3c0-1.1-0.7-2.1-2.5-3.3c2.3-0.2,3.3-0.8,3.7-1.7
	c0.5-1,0.1-2.1-1.1-3.9c0.9,0.2,1.7,0.5,2.4,0.5c0.8,0,1.4-0.2,1.8-0.6c0.8-0.8,1-1.9,0.5-4.2c1.7,1.4,2.6,1.5,3.2,1.5
	c0.2,0,0.6,0,0.8-0.1C46.3,9.6,47,8.6,47.4,6.3 M50,34.6c6.7,0,12.1-5.4,12.1-12c0-6.7-5.4-12-12.1-12s-12.1,5.4-12.1,12
	C37.9,29.3,43.3,34.6,50,34.6 M46.4,0.4l-0.3,3.5c-0.5,3.7-1,4.5-1.4,4.6c0,0-0.1,0-0.2,0c-0.5,0-1.5-0.5-3.8-2.6l-2.7-2.6l1.1,3.6
	c1.1,3.7,0.8,4.5,0.6,4.7c-0.1,0.1-0.2,0.1-0.7,0.1c-0.7,0-1.8-0.2-4.1-1.1l-3.5-1.5l2.5,2.9c2.4,2.8,2.5,3.8,2.4,4.1
	c-0.1,0.3-0.9,0.8-4.6,0.9h-3.7l3.3,1.8c3.3,1.8,3.7,2.6,3.7,3c0,0.3-0.6,1.2-3.9,2.7l-3.3,1.5l3.5,0.5c3.7,0.5,4.5,1,4.6,1.4
	c0.1,0.3,0,1.4-2.6,3.9l-2.6,2.7l3.6-1.1c2-0.7,3.2-0.8,3.8-0.8c0.5,0,0.7,0.1,0.8,0.2c0.2,0.2,0.5,1-0.9,4.6L36.6,41l2.9-2.5
	c2.4-1.9,3.4-2.4,3.9-2.4c0.1,0,0.1,0,0.2,0c0.3,0.1,0.8,0.9,0.9,4.6v3.7l1.8-3.3c1.7-3.3,2.6-3.7,3-3.7l0,0c0.3,0,1.2,0.6,2.8,3.9
	l1.5,3.2l0.3-3.5c0.5-3.7,1-4.5,1.4-4.6c0,0,0.1,0,0.2,0c0.5,0,1.5,0.5,3.8,2.6l2.7,2.6l-1.1-3.6c-1.1-3.5-0.9-4.5-0.6-4.7
	c0.1-0.1,0.2-0.1,0.7-0.1c0.6,0,1.8,0.2,4.1,1.1l3.5,1.4l-2.5-2.9c-2.4-2.8-2.5-3.8-2.4-4.1c0.1-0.3,0.9-0.8,4.6-0.9h3.7L68.9,26
	c-3.3-1.8-3.7-2.6-3.7-3c0-0.3,0.6-1.2,3.9-2.7l3.3-1.5l-3.6-0.1c-3.7-0.5-4.5-1-4.6-1.4c-0.1-0.3,0-1.4,2.6-3.9l2.6-2.7l-3.6,1.1
	c-2,0.7-3.3,0.8-3.8,0.8s-0.8-0.1-0.8-0.2c-0.2-0.2-0.5-1.1,0.9-4.6l1.4-3.5l-2.9,2.5c-2.4,1.9-3.4,2.4-3.9,2.4c-0.1,0-0.1,0-0.2,0
	C56,9,55.5,8.2,55.4,4.5V0.7L53.6,4c-1.7,3.3-2.6,3.7-3,3.7l0,0c-0.3,0-1.2-0.6-2.8-3.9L46.4,0.4L46.4,0.4z M50,32.9
	c-5.8,0-10.4-4.6-10.4-10.3S44.2,12.3,50,12.3S60.4,17,60.4,22.6S55.8,32.9,50,32.9L50,32.9z"/>
</svg>
